G04 #@! TF.GenerationSoftware,KiCad,Pcbnew,5.0.0*
G04 #@! TF.CreationDate,2018-08-13T09:31:51+09:00*
G04 #@! TF.ProjectId,moids_infinity,6D6F6964735F696E66696E6974792E6B,rev?*
G04 #@! TF.SameCoordinates,Original*
G04 #@! TF.FileFunction,Soldermask,Top*
G04 #@! TF.FilePolarity,Negative*
%FSLAX46Y46*%
G04 Gerber Fmt 4.6, Leading zero omitted, Abs format (unit mm)*
G04 Created by KiCad (PCBNEW 5.0.0) date Mon Aug 13 09:31:51 2018*
%MOMM*%
%LPD*%
G01*
G04 APERTURE LIST*
%ADD10R,0.750000X0.800000*%
%ADD11R,0.800000X0.750000*%
%ADD12R,0.900000X1.200000*%
%ADD13R,1.800860X2.100580*%
%ADD14R,2.100580X1.800860*%
%ADD15R,2.000000X1.500000*%
%ADD16R,0.900000X0.800000*%
%ADD17C,1.800000*%
%ADD18R,0.600000X1.550000*%
%ADD19R,0.850000X0.850000*%
%ADD20R,1.000000X3.000000*%
%ADD21R,1.600000X1.000000*%
%ADD22R,1.000000X1.600000*%
%ADD23R,1.700000X1.700000*%
%ADD24O,1.700000X1.700000*%
%ADD25C,1.600000*%
%ADD26R,1.520000X1.520000*%
%ADD27R,0.800000X0.900000*%
G04 APERTURE END LIST*
D10*
G04 #@! TO.C,C3*
X126050000Y-98870000D03*
X126050000Y-97370000D03*
G04 #@! TD*
G04 #@! TO.C,C4*
X114420000Y-98710000D03*
X114420000Y-97210000D03*
G04 #@! TD*
D11*
G04 #@! TO.C,C5*
X120140000Y-95450000D03*
X121640000Y-95450000D03*
G04 #@! TD*
D10*
G04 #@! TO.C,C6*
X113010000Y-97190000D03*
X113010000Y-98690000D03*
G04 #@! TD*
D11*
G04 #@! TO.C,C7*
X123070000Y-106020000D03*
X121570000Y-106020000D03*
G04 #@! TD*
G04 #@! TO.C,C9*
X118790000Y-107410000D03*
X120290000Y-107410000D03*
G04 #@! TD*
D12*
G04 #@! TO.C,D1*
X103840000Y-94700000D03*
X107140000Y-94700000D03*
G04 #@! TD*
D13*
G04 #@! TO.C,D3*
X172990000Y-103929640D03*
X172990000Y-99530360D03*
G04 #@! TD*
G04 #@! TO.C,D4*
X169430000Y-99590360D03*
X169430000Y-103989640D03*
G04 #@! TD*
D14*
G04 #@! TO.C,D5*
X165279640Y-103370000D03*
X160880360Y-103370000D03*
G04 #@! TD*
G04 #@! TO.C,D6*
X160917640Y-99332000D03*
X156518360Y-99332000D03*
G04 #@! TD*
D15*
G04 #@! TO.C,ECM1*
X126290000Y-103220000D03*
X126290000Y-100620000D03*
G04 #@! TD*
D16*
G04 #@! TO.C,Q5*
X114110000Y-108880000D03*
X114110000Y-106980000D03*
X112110000Y-107930000D03*
G04 #@! TD*
D17*
G04 #@! TO.C,T1*
X190550000Y-96340000D03*
X190550000Y-108140000D03*
X188250000Y-108140000D03*
X185950000Y-108140000D03*
X184200000Y-100140000D03*
X187000000Y-100140000D03*
X191800000Y-100140000D03*
X194100000Y-100140000D03*
G04 #@! TD*
D18*
G04 #@! TO.C,U1*
X121445000Y-98740000D03*
X120175000Y-98740000D03*
X118905000Y-98740000D03*
X117635000Y-98740000D03*
X117635000Y-104140000D03*
X118905000Y-104140000D03*
X120175000Y-104140000D03*
X121445000Y-104140000D03*
G04 #@! TD*
D11*
G04 #@! TO.C,C8*
X106240000Y-96530000D03*
X104740000Y-96530000D03*
G04 #@! TD*
D19*
G04 #@! TO.C,TP1*
X96640000Y-109550000D03*
G04 #@! TD*
D20*
G04 #@! TO.C,JT1*
X144370000Y-94850000D03*
G04 #@! TD*
D21*
G04 #@! TO.C,C14*
X181690000Y-105210000D03*
X181690000Y-102210000D03*
G04 #@! TD*
D22*
G04 #@! TO.C,C15*
X169670000Y-106680000D03*
X172670000Y-106680000D03*
G04 #@! TD*
G04 #@! TO.C,C16*
X163840000Y-99330000D03*
X166840000Y-99330000D03*
G04 #@! TD*
D21*
G04 #@! TO.C,C17*
X156432000Y-102404000D03*
X156432000Y-105404000D03*
G04 #@! TD*
D23*
G04 #@! TO.C,J1*
X93960000Y-99250000D03*
D24*
X96500000Y-99250000D03*
X93960000Y-101790000D03*
X96500000Y-101790000D03*
X93960000Y-104330000D03*
X96500000Y-104330000D03*
G04 #@! TD*
D25*
G04 #@! TO.C,Q6*
X179040000Y-98150000D03*
X176500000Y-98150000D03*
D26*
X181580000Y-98150000D03*
G04 #@! TD*
D16*
G04 #@! TO.C,R2*
X127450000Y-98870000D03*
X127450000Y-97370000D03*
G04 #@! TD*
G04 #@! TO.C,R4*
X115900000Y-96090000D03*
X115900000Y-94590000D03*
G04 #@! TD*
G04 #@! TO.C,R5*
X115910000Y-98740000D03*
X115910000Y-97240000D03*
G04 #@! TD*
D27*
G04 #@! TO.C,R7*
X123230000Y-96410000D03*
X124730000Y-96410000D03*
G04 #@! TD*
G04 #@! TO.C,R10*
X121650000Y-96870000D03*
X120150000Y-96870000D03*
G04 #@! TD*
D16*
G04 #@! TO.C,R11*
X111560000Y-100220000D03*
X111560000Y-98720000D03*
G04 #@! TD*
D27*
G04 #@! TO.C,R12*
X111620000Y-101620000D03*
X110120000Y-101620000D03*
G04 #@! TD*
G04 #@! TO.C,R13*
X114490000Y-105280000D03*
X115990000Y-105280000D03*
G04 #@! TD*
G04 #@! TO.C,R15*
X120280000Y-105990000D03*
X118780000Y-105990000D03*
G04 #@! TD*
G04 #@! TO.C,R16*
X118790000Y-108870000D03*
X120290000Y-108870000D03*
G04 #@! TD*
D16*
G04 #@! TO.C,R17*
X110062000Y-109166000D03*
X110062000Y-107666000D03*
G04 #@! TD*
M02*
