G04 #@! TF.GenerationSoftware,KiCad,Pcbnew,5.0.0*
G04 #@! TF.CreationDate,2018-08-13T09:31:51+09:00*
G04 #@! TF.ProjectId,moids_infinity,6D6F6964735F696E66696E6974792E6B,rev?*
G04 #@! TF.SameCoordinates,Original*
G04 #@! TF.FileFunction,Copper,L2,Bot,Signal*
G04 #@! TF.FilePolarity,Positive*
%FSLAX46Y46*%
G04 Gerber Fmt 4.6, Leading zero omitted, Abs format (unit mm)*
G04 Created by KiCad (PCBNEW 5.0.0) date Mon Aug 13 09:31:51 2018*
%MOMM*%
%LPD*%
G01*
G04 APERTURE LIST*
G04 #@! TA.AperFunction,SMDPad,CuDef*
%ADD10R,0.800000X0.750000*%
G04 #@! TD*
G04 #@! TA.AperFunction,SMDPad,CuDef*
%ADD11R,0.750000X0.800000*%
G04 #@! TD*
G04 #@! TA.AperFunction,SMDPad,CuDef*
%ADD12R,0.800000X0.800000*%
G04 #@! TD*
G04 #@! TA.AperFunction,SMDPad,CuDef*
%ADD13R,0.800000X0.900000*%
G04 #@! TD*
G04 #@! TA.AperFunction,SMDPad,CuDef*
%ADD14R,0.900000X0.800000*%
G04 #@! TD*
G04 #@! TA.AperFunction,SMDPad,CuDef*
%ADD15R,1.500000X1.600000*%
G04 #@! TD*
G04 #@! TA.AperFunction,SMDPad,CuDef*
%ADD16R,1.200000X1.200000*%
G04 #@! TD*
G04 #@! TA.AperFunction,ComponentPad*
%ADD17C,1.800000*%
G04 #@! TD*
G04 #@! TA.AperFunction,SMDPad,CuDef*
%ADD18R,0.600000X1.550000*%
G04 #@! TD*
G04 #@! TA.AperFunction,ComponentPad*
%ADD19R,0.850000X0.850000*%
G04 #@! TD*
G04 #@! TA.AperFunction,SMDPad,CuDef*
%ADD20R,1.000000X3.000000*%
G04 #@! TD*
G04 #@! TA.AperFunction,ComponentPad*
%ADD21R,1.700000X1.700000*%
G04 #@! TD*
G04 #@! TA.AperFunction,ComponentPad*
%ADD22O,1.700000X1.700000*%
G04 #@! TD*
G04 #@! TA.AperFunction,ComponentPad*
%ADD23C,1.600000*%
G04 #@! TD*
G04 #@! TA.AperFunction,ComponentPad*
%ADD24R,1.520000X1.520000*%
G04 #@! TD*
G04 #@! TA.AperFunction,ViaPad*
%ADD25C,0.600000*%
G04 #@! TD*
G04 #@! TA.AperFunction,Conductor*
%ADD26C,0.500000*%
G04 #@! TD*
G04 #@! TA.AperFunction,Conductor*
%ADD27C,0.250000*%
G04 #@! TD*
G04 #@! TA.AperFunction,Conductor*
%ADD28C,0.200000*%
G04 #@! TD*
G04 APERTURE END LIST*
D10*
G04 #@! TO.P,C2,2*
G04 #@! TO.N,jacob_terminal_2*
X116870000Y-105000000D03*
G04 #@! TO.P,C2,1*
G04 #@! TO.N,Net-(C2-Pad1)*
X118370000Y-105000000D03*
G04 #@! TD*
D11*
G04 #@! TO.P,C11,2*
G04 #@! TO.N,jacob_terminal_2*
X115740000Y-103380000D03*
G04 #@! TO.P,C11,1*
G04 #@! TO.N,+5V*
X115740000Y-101880000D03*
G04 #@! TD*
G04 #@! TO.P,C12,2*
G04 #@! TO.N,Net-(C12-Pad2)*
X105340000Y-96620000D03*
G04 #@! TO.P,C12,1*
G04 #@! TO.N,jacob_terminal_2*
X105340000Y-95120000D03*
G04 #@! TD*
G04 #@! TO.P,C13,2*
G04 #@! TO.N,+5V*
X107450000Y-95660000D03*
G04 #@! TO.P,C13,1*
G04 #@! TO.N,jacob_terminal_2*
X107450000Y-94160000D03*
G04 #@! TD*
D12*
G04 #@! TO.P,D2,2*
G04 #@! TO.N,+5V*
X123650000Y-98500000D03*
G04 #@! TO.P,D2,1*
G04 #@! TO.N,Net-(D2-Pad1)*
X122050000Y-98500000D03*
G04 #@! TD*
D13*
G04 #@! TO.P,Q1,1*
G04 #@! TO.N,Net-(Q1-Pad1)*
X121220000Y-103310000D03*
G04 #@! TO.P,Q1,2*
G04 #@! TO.N,Net-(Q1-Pad2)*
X119320000Y-103310000D03*
G04 #@! TO.P,Q1,3*
G04 #@! TO.N,mute*
X120270000Y-101310000D03*
G04 #@! TD*
D14*
G04 #@! TO.P,Q2,1*
G04 #@! TO.N,Net-(C2-Pad1)*
X120770000Y-109320000D03*
G04 #@! TO.P,Q2,2*
G04 #@! TO.N,jacob_terminal_2*
X120770000Y-107420000D03*
G04 #@! TO.P,Q2,3*
G04 #@! TO.N,Net-(Q2-Pad3)*
X122770000Y-108370000D03*
G04 #@! TD*
G04 #@! TO.P,Q3,1*
G04 #@! TO.N,Net-(Q3-Pad1)*
X124010000Y-105310000D03*
G04 #@! TO.P,Q3,2*
G04 #@! TO.N,Net-(Q3-Pad2)*
X124010000Y-103410000D03*
G04 #@! TO.P,Q3,3*
G04 #@! TO.N,Net-(Q3-Pad3)*
X126010000Y-104360000D03*
G04 #@! TD*
G04 #@! TO.P,Q4,1*
G04 #@! TO.N,Net-(Q3-Pad3)*
X124180000Y-96580000D03*
G04 #@! TO.P,Q4,2*
G04 #@! TO.N,jacob_terminal_2*
X124180000Y-94680000D03*
G04 #@! TO.P,Q4,3*
G04 #@! TO.N,spark_gate*
X126180000Y-95630000D03*
G04 #@! TD*
D15*
G04 #@! TO.P,RV1,2*
G04 #@! TO.N,Net-(C2-Pad1)*
X118160000Y-108740000D03*
D16*
G04 #@! TO.P,RV1,3*
G04 #@! TO.N,timer_out*
X114910000Y-107340000D03*
G04 #@! TO.P,RV1,1*
G04 #@! TO.N,N/C*
X114910000Y-110140000D03*
G04 #@! TD*
D17*
G04 #@! TO.P,T1,8*
G04 #@! TO.N,N/C*
X190550000Y-96340000D03*
G04 #@! TO.P,T1,7*
G04 #@! TO.N,Net-(Q6-Pad3)*
X190550000Y-108140000D03*
G04 #@! TO.P,T1,6*
G04 #@! TO.N,Net-(R18-Pad1)*
X188250000Y-108140000D03*
G04 #@! TO.P,T1,5*
G04 #@! TO.N,Net-(Q6-Pad1)*
X185950000Y-108140000D03*
G04 #@! TO.P,T1,4*
G04 #@! TO.N,N/C*
X184200000Y-100140000D03*
G04 #@! TO.P,T1,3*
G04 #@! TO.N,transformer_out*
X187000000Y-100140000D03*
G04 #@! TO.P,T1,2*
G04 #@! TO.N,+5V*
X191800000Y-100140000D03*
G04 #@! TO.P,T1,1*
G04 #@! TO.N,N/C*
X194100000Y-100140000D03*
G04 #@! TD*
D18*
G04 #@! TO.P,U2,1*
G04 #@! TO.N,jacob_terminal_2*
X114135000Y-104950000D03*
G04 #@! TO.P,U2,2*
G04 #@! TO.N,Net-(Q5-Pad3)*
X112865000Y-104950000D03*
G04 #@! TO.P,U2,3*
G04 #@! TO.N,timer_out*
X111595000Y-104950000D03*
G04 #@! TO.P,U2,4*
G04 #@! TO.N,N/C*
X110325000Y-104950000D03*
G04 #@! TO.P,U2,5*
G04 #@! TO.N,Net-(C12-Pad2)*
X110325000Y-99550000D03*
G04 #@! TO.P,U2,6*
G04 #@! TO.N,+5V*
X111595000Y-99550000D03*
G04 #@! TO.P,U2,7*
X112865000Y-99550000D03*
G04 #@! TO.P,U2,8*
X114135000Y-99550000D03*
G04 #@! TD*
D19*
G04 #@! TO.P,TP1,1*
G04 #@! TO.N,jacob_terminal_2*
X96640000Y-109550000D03*
G04 #@! TD*
D20*
G04 #@! TO.P,JT2,1*
G04 #@! TO.N,jacob_terminal_2*
X144510000Y-108710000D03*
G04 #@! TD*
D21*
G04 #@! TO.P,J1,1*
G04 #@! TO.N,jacob_terminal_2*
X93960000Y-99250000D03*
D22*
G04 #@! TO.P,J1,2*
X96500000Y-99250000D03*
G04 #@! TO.P,J1,3*
G04 #@! TO.N,+5V*
X93960000Y-101790000D03*
G04 #@! TO.P,J1,4*
X96500000Y-101790000D03*
G04 #@! TO.P,J1,5*
G04 #@! TO.N,jacob_terminal_2*
X93960000Y-104330000D03*
G04 #@! TO.P,J1,6*
X96500000Y-104330000D03*
G04 #@! TD*
D23*
G04 #@! TO.P,Q6,2*
G04 #@! TO.N,spark_gate*
X179040000Y-98150000D03*
G04 #@! TO.P,Q6,3*
G04 #@! TO.N,Net-(Q6-Pad3)*
X176500000Y-98150000D03*
D24*
G04 #@! TO.P,Q6,1*
G04 #@! TO.N,Net-(Q6-Pad1)*
X181580000Y-98150000D03*
G04 #@! TD*
D14*
G04 #@! TO.P,R1,1*
G04 #@! TO.N,jacob_terminal_2*
X117280000Y-101810000D03*
G04 #@! TO.P,R1,2*
G04 #@! TO.N,Net-(Q1-Pad2)*
X117280000Y-103310000D03*
G04 #@! TD*
D13*
G04 #@! TO.P,R3,1*
G04 #@! TO.N,Net-(C2-Pad1)*
X119720000Y-105020000D03*
G04 #@! TO.P,R3,2*
G04 #@! TO.N,Net-(Q1-Pad1)*
X121220000Y-105020000D03*
G04 #@! TD*
G04 #@! TO.P,R6,1*
G04 #@! TO.N,Net-(Q2-Pad3)*
X124200000Y-107930000D03*
G04 #@! TO.P,R6,2*
G04 #@! TO.N,Net-(Q3-Pad1)*
X125700000Y-107930000D03*
G04 #@! TD*
D14*
G04 #@! TO.P,R8,1*
G04 #@! TO.N,Net-(Q3-Pad2)*
X123990000Y-101760000D03*
G04 #@! TO.P,R8,2*
G04 #@! TO.N,+5V*
X123990000Y-100260000D03*
G04 #@! TD*
G04 #@! TO.P,R9,1*
G04 #@! TO.N,jacob_terminal_2*
X129680000Y-110200000D03*
G04 #@! TO.P,R9,2*
G04 #@! TO.N,Net-(Q3-Pad3)*
X129680000Y-108700000D03*
G04 #@! TD*
D13*
G04 #@! TO.P,R14,1*
G04 #@! TO.N,spark_gate*
X118960000Y-98500000D03*
G04 #@! TO.P,R14,2*
G04 #@! TO.N,Net-(D2-Pad1)*
X120460000Y-98500000D03*
G04 #@! TD*
D14*
G04 #@! TO.P,R18,1*
G04 #@! TO.N,Net-(R18-Pad1)*
X188270000Y-106150000D03*
G04 #@! TO.P,R18,2*
G04 #@! TO.N,+5V*
X188270000Y-104650000D03*
G04 #@! TD*
D13*
G04 #@! TO.P,R19,1*
G04 #@! TO.N,Net-(C2-Pad1)*
X124420000Y-109680000D03*
G04 #@! TO.P,R19,2*
G04 #@! TO.N,jacob_terminal_2*
X125920000Y-109680000D03*
G04 #@! TD*
D25*
G04 #@! TO.N,+5V*
X132990000Y-93790000D03*
X122770000Y-101220000D03*
X117240000Y-95170000D03*
X111390000Y-94330000D03*
X111790000Y-103420000D03*
X115440000Y-100130000D03*
G04 #@! TO.N,mute*
X119170000Y-100170000D03*
G04 #@! TO.N,Net-(C14-Pad1)*
X176500000Y-101590000D03*
X181700000Y-107220000D03*
G04 #@! TO.N,Net-(Q5-Pad3)*
X112140000Y-106680000D03*
G04 #@! TO.N,jacob_terminal_2*
X105550000Y-93520000D03*
X117290000Y-100490000D03*
X116730000Y-106960000D03*
X112660000Y-101610000D03*
X127390000Y-110190000D03*
G04 #@! TD*
D26*
G04 #@! TO.N,+5V*
X185850000Y-95330000D02*
X188030000Y-95330000D01*
X132990000Y-93790000D02*
X133390000Y-94190000D01*
X133390000Y-94190000D02*
X175350000Y-94190000D01*
X175350000Y-94190000D02*
X176490000Y-95330000D01*
X176490000Y-95330000D02*
X185850000Y-95330000D01*
X192110000Y-98530000D02*
X192110000Y-99830000D01*
X193340000Y-97300000D02*
X192110000Y-98530000D01*
X193340000Y-95480000D02*
X193340000Y-97300000D01*
X192430000Y-94570000D02*
X193340000Y-95480000D01*
X188790000Y-94570000D02*
X192430000Y-94570000D01*
X188030000Y-95330000D02*
X188790000Y-94570000D01*
X192110000Y-99830000D02*
X191800000Y-100140000D01*
X188270000Y-104650000D02*
X190110000Y-104650000D01*
X191800000Y-102960000D02*
X191800000Y-100140000D01*
X190110000Y-104650000D02*
X191800000Y-102960000D01*
D27*
X114135000Y-99550000D02*
X114135000Y-95325000D01*
X114135000Y-95325000D02*
X113130000Y-94320000D01*
X114135000Y-101335000D02*
X114135000Y-99550000D01*
X111595000Y-99550000D02*
X111595000Y-97395000D01*
X109860000Y-95660000D02*
X107450000Y-95660000D01*
X111595000Y-97395000D02*
X109860000Y-95660000D01*
X114135000Y-99550000D02*
X112865000Y-99550000D01*
X107510000Y-95720000D02*
X107450000Y-95660000D01*
X123990000Y-100260000D02*
X123990000Y-98840000D01*
X123990000Y-98840000D02*
X123650000Y-98500000D01*
X123120000Y-100260000D02*
X122770000Y-100610000D01*
X122770000Y-100610000D02*
X122770000Y-101220000D01*
X123120000Y-100260000D02*
X123990000Y-100260000D01*
X117240000Y-95170000D02*
X117530000Y-94880000D01*
X117530000Y-94880000D02*
X117530000Y-93670000D01*
X117530000Y-93670000D02*
X117330000Y-93470000D01*
X117330000Y-93470000D02*
X113980000Y-93470000D01*
X113980000Y-93470000D02*
X113130000Y-94320000D01*
X113130000Y-94320000D02*
X111400000Y-94320000D01*
X111400000Y-94320000D02*
X111390000Y-94330000D01*
X111860000Y-103490000D02*
X111790000Y-103420000D01*
X114135000Y-99550000D02*
X114870000Y-99560000D01*
X114870000Y-99560000D02*
X115440000Y-100130000D01*
X112900000Y-99515000D02*
X112865000Y-99550000D01*
X112865000Y-99550000D02*
X111595000Y-99550000D01*
X114570000Y-101335000D02*
X114135000Y-101335000D01*
X115115000Y-101880000D02*
X114570000Y-101335000D01*
X115740000Y-101880000D02*
X115115000Y-101880000D01*
G04 #@! TO.N,Net-(C2-Pad1)*
X120770000Y-109320000D02*
X118740000Y-109320000D01*
X118740000Y-109320000D02*
X118160000Y-108740000D01*
X118370000Y-105000000D02*
X118370000Y-108530000D01*
X118370000Y-108530000D02*
X118160000Y-108740000D01*
X119720000Y-105020000D02*
X118390000Y-105020000D01*
X118390000Y-105020000D02*
X118370000Y-105000000D01*
X119670000Y-104970000D02*
X119720000Y-105020000D01*
X120760000Y-109330000D02*
X120770000Y-109320000D01*
X118740000Y-109320000D02*
X118160000Y-108740000D01*
X122050000Y-109900000D02*
X121470000Y-109320000D01*
X121470000Y-109320000D02*
X120770000Y-109320000D01*
X123550000Y-109900000D02*
X122050000Y-109900000D01*
X123770000Y-109680000D02*
X123550000Y-109900000D01*
X124420000Y-109680000D02*
X123770000Y-109680000D01*
G04 #@! TO.N,mute*
X120270000Y-101310000D02*
X119680000Y-101310000D01*
X119170000Y-100800000D02*
X119170000Y-100170000D01*
X119680000Y-101310000D02*
X119170000Y-100800000D01*
G04 #@! TO.N,Net-(C12-Pad2)*
X110325000Y-98475000D02*
X110325000Y-97415000D01*
X105390000Y-96670000D02*
X108520000Y-96670000D01*
X110325000Y-98475000D02*
X110325000Y-99550000D01*
X108540000Y-96690000D02*
X108520000Y-96670000D01*
X109600000Y-96690000D02*
X108540000Y-96690000D01*
X110325000Y-97415000D02*
X109600000Y-96690000D01*
X105390000Y-96670000D02*
X105340000Y-96620000D01*
X105375000Y-96655000D02*
X105340000Y-96620000D01*
D26*
G04 #@! TO.N,Net-(C14-Pad1)*
X176500000Y-102100000D02*
X176500000Y-101590000D01*
X176500000Y-102100000D02*
X176500000Y-105590000D01*
X176500000Y-105590000D02*
X178130000Y-107220000D01*
X178130000Y-107220000D02*
X181700000Y-107220000D01*
D27*
G04 #@! TO.N,Net-(D2-Pad1)*
X122050000Y-98500000D02*
X120460000Y-98500000D01*
X122030000Y-98480000D02*
X122050000Y-98500000D01*
G04 #@! TO.N,Net-(Q1-Pad1)*
X121220000Y-105020000D02*
X121220000Y-103310000D01*
G04 #@! TO.N,Net-(Q1-Pad2)*
X119320000Y-103310000D02*
X117280000Y-103310000D01*
X119310000Y-103320000D02*
X119320000Y-103310000D01*
X117250000Y-103280000D02*
X117280000Y-103310000D01*
G04 #@! TO.N,Net-(Q3-Pad1)*
X124010000Y-105310000D02*
X124010000Y-106610000D01*
X125500000Y-107090000D02*
X125700000Y-107290000D01*
X124490000Y-107090000D02*
X125500000Y-107090000D01*
X124010000Y-106610000D02*
X124490000Y-107090000D01*
X125700000Y-107290000D02*
X125700000Y-107930000D01*
G04 #@! TO.N,Net-(Q3-Pad2)*
X123990000Y-101760000D02*
X123990000Y-103390000D01*
X123990000Y-103390000D02*
X124010000Y-103410000D01*
X123990000Y-103430000D02*
X124010000Y-103410000D01*
G04 #@! TO.N,Net-(Q3-Pad3)*
X124180000Y-96580000D02*
X124180000Y-97240000D01*
X126010000Y-97660000D02*
X126010000Y-104360000D01*
X125970000Y-97620000D02*
X126010000Y-97660000D01*
X124560000Y-97620000D02*
X125970000Y-97620000D01*
X124180000Y-97240000D02*
X124560000Y-97620000D01*
X126010000Y-105970000D02*
X126010000Y-104360000D01*
X127530000Y-107490000D02*
X126010000Y-105970000D01*
X127770000Y-107490000D02*
X127530000Y-107490000D01*
X129680000Y-108700000D02*
X128980000Y-108700000D01*
X128980000Y-108700000D02*
X127770000Y-107490000D01*
G04 #@! TO.N,Net-(Q5-Pad3)*
X112490000Y-106330000D02*
X112780000Y-106330000D01*
X112865000Y-106245000D02*
X112865000Y-104950000D01*
X112780000Y-106330000D02*
X112865000Y-106245000D01*
X112140000Y-106680000D02*
X112490000Y-106330000D01*
X112490000Y-106330000D02*
X112505000Y-106315000D01*
D26*
G04 #@! TO.N,Net-(Q6-Pad1)*
X185950000Y-104040000D02*
X187340000Y-102650000D01*
X187340000Y-102650000D02*
X188730000Y-102650000D01*
X188790000Y-98150000D02*
X181580000Y-98150000D01*
X189290000Y-102090000D02*
X189290000Y-98650000D01*
X185950000Y-108140000D02*
X185950000Y-104040000D01*
X188730000Y-102650000D02*
X189290000Y-102090000D01*
X189290000Y-98650000D02*
X188790000Y-98150000D01*
D27*
G04 #@! TO.N,timer_out*
X111595000Y-104950000D02*
X111595000Y-105775000D01*
X111550000Y-107620000D02*
X114630000Y-107620000D01*
X111050000Y-107120000D02*
X111550000Y-107620000D01*
X111050000Y-106320000D02*
X111050000Y-107120000D01*
X111595000Y-105775000D02*
X111050000Y-106320000D01*
X114630000Y-107620000D02*
X114910000Y-107340000D01*
X111510000Y-105035000D02*
X111595000Y-104950000D01*
D26*
G04 #@! TO.N,jacob_terminal_2*
X142150000Y-110200000D02*
X142360000Y-110200000D01*
X143580000Y-108710000D02*
X144510000Y-108710000D01*
X143010000Y-109280000D02*
X143580000Y-108710000D01*
X143010000Y-109550000D02*
X143010000Y-109280000D01*
X142360000Y-110200000D02*
X143010000Y-109550000D01*
X142210000Y-110200000D02*
X142150000Y-110200000D01*
X142150000Y-110200000D02*
X127250000Y-110200000D01*
D27*
X117280000Y-100500000D02*
X117280000Y-101810000D01*
X117290000Y-100490000D02*
X117280000Y-100500000D01*
X115370000Y-104990000D02*
X114165000Y-104980000D01*
X114165000Y-104980000D02*
X114135000Y-104950000D01*
X126880000Y-109680000D02*
X127390000Y-110190000D01*
X125920000Y-109680000D02*
X126880000Y-109680000D01*
G04 #@! TO.N,spark_gate*
X118960000Y-98500000D02*
X118960000Y-97620000D01*
X123300000Y-95630000D02*
X126180000Y-95630000D01*
X122900000Y-96030000D02*
X123300000Y-95630000D01*
X122900000Y-96780000D02*
X122900000Y-96030000D01*
X122290000Y-97390000D02*
X122900000Y-96780000D01*
X119190000Y-97390000D02*
X122290000Y-97390000D01*
X118960000Y-97620000D02*
X119190000Y-97390000D01*
D26*
X173930000Y-95730000D02*
X126280000Y-95730000D01*
X126280000Y-95730000D02*
X126180000Y-95630000D01*
X174870000Y-96670000D02*
X173930000Y-95730000D01*
X178691370Y-96670000D02*
X174870000Y-96670000D01*
X179040000Y-97018630D02*
X178691370Y-96670000D01*
X179040000Y-98150000D02*
X179040000Y-97018630D01*
G04 #@! TO.N,Net-(R18-Pad1)*
X188270000Y-106150000D02*
X188270000Y-108120000D01*
X188270000Y-108120000D02*
X188250000Y-108140000D01*
X188290000Y-108100000D02*
X188250000Y-108140000D01*
D27*
G04 #@! TO.N,Net-(Q2-Pad3)*
X124200000Y-108350000D02*
X122790000Y-108350000D01*
X122790000Y-108350000D02*
X122770000Y-108370000D01*
G04 #@! TD*
D28*
G04 #@! TO.N,jacob_terminal_2*
G36*
X127650000Y-92906562D02*
X127650000Y-95180000D01*
X126925931Y-95180000D01*
X126912593Y-95112946D01*
X126846288Y-95013712D01*
X126747054Y-94947407D01*
X126630000Y-94924123D01*
X125730000Y-94924123D01*
X125612946Y-94947407D01*
X125513712Y-95013712D01*
X125447407Y-95112946D01*
X125429096Y-95205000D01*
X125236317Y-95205000D01*
X125238000Y-95200938D01*
X125238000Y-94986000D01*
X125086000Y-94834000D01*
X124334000Y-94834000D01*
X124334000Y-94854000D01*
X124026000Y-94854000D01*
X124026000Y-94834000D01*
X123274000Y-94834000D01*
X123122000Y-94986000D01*
X123122000Y-95200938D01*
X123133956Y-95229804D01*
X122993592Y-95323592D01*
X122969881Y-95359078D01*
X122629078Y-95699881D01*
X122593593Y-95723592D01*
X122569882Y-95759078D01*
X122499659Y-95864174D01*
X122466674Y-96030000D01*
X122475001Y-96071862D01*
X122475000Y-96603959D01*
X122113960Y-96965000D01*
X119231857Y-96965000D01*
X119189999Y-96956674D01*
X119047002Y-96985118D01*
X119024173Y-96989659D01*
X118883592Y-97083592D01*
X118859879Y-97119081D01*
X118689079Y-97289881D01*
X118653593Y-97313592D01*
X118629883Y-97349077D01*
X118629882Y-97349078D01*
X118559659Y-97454174D01*
X118526674Y-97620000D01*
X118535001Y-97661862D01*
X118535001Y-97749096D01*
X118442946Y-97767407D01*
X118343712Y-97833712D01*
X118277407Y-97932946D01*
X118254123Y-98050000D01*
X118254123Y-98950000D01*
X118277407Y-99067054D01*
X118343712Y-99166288D01*
X118442946Y-99232593D01*
X118560000Y-99255877D01*
X119360000Y-99255877D01*
X119477054Y-99232593D01*
X119576288Y-99166288D01*
X119642593Y-99067054D01*
X119665877Y-98950000D01*
X119665877Y-98050000D01*
X119642593Y-97932946D01*
X119576288Y-97833712D01*
X119548283Y-97815000D01*
X119871717Y-97815000D01*
X119843712Y-97833712D01*
X119777407Y-97932946D01*
X119754123Y-98050000D01*
X119754123Y-98950000D01*
X119777407Y-99067054D01*
X119843712Y-99166288D01*
X119942946Y-99232593D01*
X120060000Y-99255877D01*
X120860000Y-99255877D01*
X120977054Y-99232593D01*
X121076288Y-99166288D01*
X121142593Y-99067054D01*
X121165877Y-98950000D01*
X121165877Y-98925000D01*
X121349096Y-98925000D01*
X121367407Y-99017054D01*
X121433712Y-99116288D01*
X121532946Y-99182593D01*
X121650000Y-99205877D01*
X122450000Y-99205877D01*
X122567054Y-99182593D01*
X122666288Y-99116288D01*
X122732593Y-99017054D01*
X122755877Y-98900000D01*
X122755877Y-98100000D01*
X122732593Y-97982946D01*
X122666288Y-97883712D01*
X122567054Y-97817407D01*
X122450000Y-97794123D01*
X122436814Y-97794123D01*
X122455827Y-97790341D01*
X122596408Y-97696408D01*
X122620121Y-97660919D01*
X123170922Y-97110118D01*
X123206408Y-97086408D01*
X123300341Y-96945827D01*
X123301317Y-96940922D01*
X123333326Y-96780001D01*
X123325000Y-96738143D01*
X123325000Y-96206040D01*
X123442270Y-96088771D01*
X123424123Y-96180000D01*
X123424123Y-96980000D01*
X123447407Y-97097054D01*
X123513712Y-97196288D01*
X123612946Y-97262593D01*
X123730000Y-97285877D01*
X123755800Y-97285877D01*
X123779659Y-97405826D01*
X123816262Y-97460606D01*
X123873593Y-97546408D01*
X123909078Y-97570119D01*
X124153712Y-97814753D01*
X124050000Y-97794123D01*
X123250000Y-97794123D01*
X123132946Y-97817407D01*
X123033712Y-97883712D01*
X122967407Y-97982946D01*
X122944123Y-98100000D01*
X122944123Y-98900000D01*
X122967407Y-99017054D01*
X123033712Y-99116288D01*
X123132946Y-99182593D01*
X123250000Y-99205877D01*
X123565001Y-99205877D01*
X123565000Y-99554123D01*
X123540000Y-99554123D01*
X123422946Y-99577407D01*
X123323712Y-99643712D01*
X123257407Y-99742946D01*
X123239096Y-99835000D01*
X123161857Y-99835000D01*
X123120000Y-99826674D01*
X123078142Y-99835000D01*
X122954173Y-99859659D01*
X122813592Y-99953592D01*
X122789881Y-99989078D01*
X122499080Y-100279879D01*
X122463592Y-100303592D01*
X122399403Y-100399659D01*
X122369659Y-100444174D01*
X122336674Y-100610000D01*
X122345000Y-100651858D01*
X122345000Y-100796471D01*
X122261344Y-100880127D01*
X122170000Y-101100653D01*
X122170000Y-101339347D01*
X122261344Y-101559873D01*
X122430127Y-101728656D01*
X122650653Y-101820000D01*
X122889347Y-101820000D01*
X123109873Y-101728656D01*
X123234123Y-101604406D01*
X123234123Y-102160000D01*
X123257407Y-102277054D01*
X123323712Y-102376288D01*
X123422946Y-102442593D01*
X123540000Y-102465877D01*
X123565000Y-102465877D01*
X123565001Y-102704123D01*
X123560000Y-102704123D01*
X123442946Y-102727407D01*
X123343712Y-102793712D01*
X123277407Y-102892946D01*
X123254123Y-103010000D01*
X123254123Y-103810000D01*
X123277407Y-103927054D01*
X123343712Y-104026288D01*
X123442946Y-104092593D01*
X123560000Y-104115877D01*
X124460000Y-104115877D01*
X124577054Y-104092593D01*
X124676288Y-104026288D01*
X124742593Y-103927054D01*
X124765877Y-103810000D01*
X124765877Y-103010000D01*
X124742593Y-102892946D01*
X124676288Y-102793712D01*
X124577054Y-102727407D01*
X124460000Y-102704123D01*
X124415000Y-102704123D01*
X124415000Y-102465877D01*
X124440000Y-102465877D01*
X124557054Y-102442593D01*
X124656288Y-102376288D01*
X124722593Y-102277054D01*
X124745877Y-102160000D01*
X124745877Y-101360000D01*
X124722593Y-101242946D01*
X124656288Y-101143712D01*
X124557054Y-101077407D01*
X124440000Y-101054123D01*
X123540000Y-101054123D01*
X123422946Y-101077407D01*
X123370000Y-101112784D01*
X123370000Y-101100653D01*
X123278656Y-100880127D01*
X123195000Y-100796471D01*
X123195000Y-100786040D01*
X123248544Y-100732497D01*
X123257407Y-100777054D01*
X123323712Y-100876288D01*
X123422946Y-100942593D01*
X123540000Y-100965877D01*
X124440000Y-100965877D01*
X124557054Y-100942593D01*
X124656288Y-100876288D01*
X124722593Y-100777054D01*
X124745877Y-100660000D01*
X124745877Y-99860000D01*
X124722593Y-99742946D01*
X124656288Y-99643712D01*
X124557054Y-99577407D01*
X124440000Y-99554123D01*
X124415000Y-99554123D01*
X124415000Y-98881857D01*
X124423326Y-98840000D01*
X124390341Y-98674173D01*
X124368059Y-98640826D01*
X124355877Y-98622594D01*
X124355877Y-98100000D01*
X124332593Y-97982946D01*
X124328065Y-97976169D01*
X124348941Y-97990118D01*
X124394173Y-98020341D01*
X124559999Y-98053326D01*
X124601857Y-98045000D01*
X125585000Y-98045000D01*
X125585001Y-103654123D01*
X125560000Y-103654123D01*
X125442946Y-103677407D01*
X125343712Y-103743712D01*
X125277407Y-103842946D01*
X125254123Y-103960000D01*
X125254123Y-104760000D01*
X125277407Y-104877054D01*
X125343712Y-104976288D01*
X125442946Y-105042593D01*
X125560000Y-105065877D01*
X125585001Y-105065877D01*
X125585000Y-105928142D01*
X125576674Y-105970000D01*
X125598835Y-106081408D01*
X125609659Y-106135826D01*
X125703592Y-106276408D01*
X125739081Y-106300121D01*
X127199881Y-107760922D01*
X127223592Y-107796408D01*
X127364173Y-107890341D01*
X127470346Y-107911460D01*
X127530000Y-107923326D01*
X127571857Y-107915000D01*
X127593960Y-107915000D01*
X127650000Y-107971040D01*
X127650000Y-110593276D01*
X126699464Y-110610378D01*
X126835438Y-110474404D01*
X126928000Y-110250938D01*
X126928000Y-109986000D01*
X126776000Y-109834000D01*
X126074000Y-109834000D01*
X126074000Y-109854000D01*
X125766000Y-109854000D01*
X125766000Y-109834000D01*
X125746000Y-109834000D01*
X125746000Y-109526000D01*
X125766000Y-109526000D01*
X125766000Y-109506000D01*
X126074000Y-109506000D01*
X126074000Y-109526000D01*
X126776000Y-109526000D01*
X126928000Y-109374000D01*
X126928000Y-109109062D01*
X126835438Y-108885596D01*
X126664405Y-108714563D01*
X126440939Y-108622000D01*
X126277807Y-108622000D01*
X126316288Y-108596288D01*
X126382593Y-108497054D01*
X126405877Y-108380000D01*
X126405877Y-107480000D01*
X126382593Y-107362946D01*
X126316288Y-107263712D01*
X126217054Y-107197407D01*
X126110700Y-107176251D01*
X126100341Y-107124173D01*
X126079377Y-107092798D01*
X126006408Y-106983592D01*
X125970920Y-106959880D01*
X125830121Y-106819081D01*
X125806408Y-106783592D01*
X125665827Y-106689659D01*
X125541858Y-106665000D01*
X125541857Y-106665000D01*
X125500000Y-106656674D01*
X125458143Y-106665000D01*
X124666040Y-106665000D01*
X124435000Y-106433960D01*
X124435000Y-106015877D01*
X124460000Y-106015877D01*
X124577054Y-105992593D01*
X124676288Y-105926288D01*
X124742593Y-105827054D01*
X124765877Y-105710000D01*
X124765877Y-104910000D01*
X124742593Y-104792946D01*
X124676288Y-104693712D01*
X124577054Y-104627407D01*
X124460000Y-104604123D01*
X123560000Y-104604123D01*
X123442946Y-104627407D01*
X123343712Y-104693712D01*
X123277407Y-104792946D01*
X123254123Y-104910000D01*
X123254123Y-105710000D01*
X123277407Y-105827054D01*
X123343712Y-105926288D01*
X123442946Y-105992593D01*
X123560000Y-106015877D01*
X123585001Y-106015877D01*
X123585001Y-106568138D01*
X123576674Y-106610000D01*
X123609659Y-106775826D01*
X123676601Y-106876011D01*
X123703593Y-106916408D01*
X123739079Y-106940119D01*
X123973083Y-107174123D01*
X123800000Y-107174123D01*
X123682946Y-107197407D01*
X123583712Y-107263712D01*
X123517407Y-107362946D01*
X123494123Y-107480000D01*
X123494123Y-107840270D01*
X123436288Y-107753712D01*
X123337054Y-107687407D01*
X123220000Y-107664123D01*
X122320000Y-107664123D01*
X122202946Y-107687407D01*
X122103712Y-107753712D01*
X122037407Y-107852946D01*
X122014123Y-107970000D01*
X122014123Y-108770000D01*
X122037407Y-108887054D01*
X122103712Y-108986288D01*
X122202946Y-109052593D01*
X122320000Y-109075877D01*
X123220000Y-109075877D01*
X123337054Y-109052593D01*
X123436288Y-108986288D01*
X123502593Y-108887054D01*
X123524882Y-108775000D01*
X124241858Y-108775000D01*
X124365827Y-108750341D01*
X124462304Y-108685877D01*
X124600000Y-108685877D01*
X124717054Y-108662593D01*
X124816288Y-108596288D01*
X124882593Y-108497054D01*
X124905877Y-108380000D01*
X124905877Y-107515000D01*
X124994123Y-107515000D01*
X124994123Y-108380000D01*
X125017407Y-108497054D01*
X125083712Y-108596288D01*
X125182946Y-108662593D01*
X125262741Y-108678466D01*
X125175595Y-108714563D01*
X125004562Y-108885596D01*
X124969875Y-108969337D01*
X124937054Y-108947407D01*
X124820000Y-108924123D01*
X124020000Y-108924123D01*
X123902946Y-108947407D01*
X123803712Y-109013712D01*
X123737407Y-109112946D01*
X123714123Y-109230000D01*
X123714123Y-109257789D01*
X123604173Y-109279659D01*
X123463592Y-109373592D01*
X123439879Y-109409081D01*
X123373960Y-109475000D01*
X122226041Y-109475000D01*
X121800121Y-109049081D01*
X121776408Y-109013592D01*
X121635827Y-108919659D01*
X121521277Y-108896874D01*
X121502593Y-108802946D01*
X121436288Y-108703712D01*
X121337054Y-108637407D01*
X121220000Y-108614123D01*
X120320000Y-108614123D01*
X120202946Y-108637407D01*
X120103712Y-108703712D01*
X120037407Y-108802946D01*
X120019096Y-108895000D01*
X119215877Y-108895000D01*
X119215877Y-107940000D01*
X119192593Y-107822946D01*
X119127817Y-107726000D01*
X119712000Y-107726000D01*
X119712000Y-107940938D01*
X119804562Y-108164404D01*
X119975595Y-108335437D01*
X120199061Y-108428000D01*
X120464000Y-108428000D01*
X120616000Y-108276000D01*
X120616000Y-107574000D01*
X120924000Y-107574000D01*
X120924000Y-108276000D01*
X121076000Y-108428000D01*
X121340939Y-108428000D01*
X121564405Y-108335437D01*
X121735438Y-108164404D01*
X121828000Y-107940938D01*
X121828000Y-107726000D01*
X121676000Y-107574000D01*
X120924000Y-107574000D01*
X120616000Y-107574000D01*
X119864000Y-107574000D01*
X119712000Y-107726000D01*
X119127817Y-107726000D01*
X119126288Y-107723712D01*
X119027054Y-107657407D01*
X118910000Y-107634123D01*
X118795000Y-107634123D01*
X118795000Y-106899062D01*
X119712000Y-106899062D01*
X119712000Y-107114000D01*
X119864000Y-107266000D01*
X120616000Y-107266000D01*
X120616000Y-106564000D01*
X120924000Y-106564000D01*
X120924000Y-107266000D01*
X121676000Y-107266000D01*
X121828000Y-107114000D01*
X121828000Y-106899062D01*
X121735438Y-106675596D01*
X121564405Y-106504563D01*
X121340939Y-106412000D01*
X121076000Y-106412000D01*
X120924000Y-106564000D01*
X120616000Y-106564000D01*
X120464000Y-106412000D01*
X120199061Y-106412000D01*
X119975595Y-106504563D01*
X119804562Y-106675596D01*
X119712000Y-106899062D01*
X118795000Y-106899062D01*
X118795000Y-105675904D01*
X118887054Y-105657593D01*
X118986288Y-105591288D01*
X119026329Y-105531362D01*
X119037407Y-105587054D01*
X119103712Y-105686288D01*
X119202946Y-105752593D01*
X119320000Y-105775877D01*
X120120000Y-105775877D01*
X120237054Y-105752593D01*
X120336288Y-105686288D01*
X120402593Y-105587054D01*
X120425877Y-105470000D01*
X120425877Y-104570000D01*
X120402593Y-104452946D01*
X120336288Y-104353712D01*
X120237054Y-104287407D01*
X120120000Y-104264123D01*
X119320000Y-104264123D01*
X119202946Y-104287407D01*
X119103712Y-104353712D01*
X119037407Y-104452946D01*
X119032460Y-104477815D01*
X118986288Y-104408712D01*
X118887054Y-104342407D01*
X118770000Y-104319123D01*
X117970000Y-104319123D01*
X117852946Y-104342407D01*
X117820125Y-104364337D01*
X117785438Y-104280596D01*
X117614405Y-104109563D01*
X117390939Y-104017000D01*
X117176000Y-104017000D01*
X117024000Y-104169000D01*
X117024000Y-104846000D01*
X117044000Y-104846000D01*
X117044000Y-105154000D01*
X117024000Y-105154000D01*
X117024000Y-105831000D01*
X117176000Y-105983000D01*
X117390939Y-105983000D01*
X117614405Y-105890437D01*
X117785438Y-105719404D01*
X117820125Y-105635663D01*
X117852946Y-105657593D01*
X117945000Y-105675904D01*
X117945001Y-107634123D01*
X117410000Y-107634123D01*
X117292946Y-107657407D01*
X117193712Y-107723712D01*
X117127407Y-107822946D01*
X117104123Y-107940000D01*
X117104123Y-109540000D01*
X117127407Y-109657054D01*
X117193712Y-109756288D01*
X117292946Y-109822593D01*
X117410000Y-109845877D01*
X118910000Y-109845877D01*
X119027054Y-109822593D01*
X119126288Y-109756288D01*
X119133830Y-109745000D01*
X120019096Y-109745000D01*
X120037407Y-109837054D01*
X120103712Y-109936288D01*
X120202946Y-110002593D01*
X120320000Y-110025877D01*
X121220000Y-110025877D01*
X121337054Y-110002593D01*
X121436288Y-109936288D01*
X121455898Y-109906939D01*
X121719881Y-110170922D01*
X121743592Y-110206408D01*
X121810236Y-110250938D01*
X121884173Y-110300341D01*
X122050000Y-110333326D01*
X122091857Y-110325000D01*
X123508143Y-110325000D01*
X123550000Y-110333326D01*
X123591857Y-110325000D01*
X123591858Y-110325000D01*
X123715827Y-110300341D01*
X123755361Y-110273925D01*
X123803712Y-110346288D01*
X123902946Y-110412593D01*
X124020000Y-110435877D01*
X124820000Y-110435877D01*
X124937054Y-110412593D01*
X124969875Y-110390663D01*
X125004562Y-110474404D01*
X125168088Y-110637930D01*
X115802663Y-110806432D01*
X115815877Y-110740000D01*
X115815877Y-109540000D01*
X115792593Y-109422946D01*
X115726288Y-109323712D01*
X115627054Y-109257407D01*
X115510000Y-109234123D01*
X114310000Y-109234123D01*
X114192946Y-109257407D01*
X114093712Y-109323712D01*
X114027407Y-109422946D01*
X114004123Y-109540000D01*
X114004123Y-110740000D01*
X114023704Y-110838439D01*
X92050000Y-111233789D01*
X92050000Y-109856000D01*
X95607000Y-109856000D01*
X95607000Y-110095938D01*
X95699562Y-110319404D01*
X95870595Y-110490437D01*
X96094061Y-110583000D01*
X96334000Y-110583000D01*
X96486000Y-110431000D01*
X96486000Y-109704000D01*
X96794000Y-109704000D01*
X96794000Y-110431000D01*
X96946000Y-110583000D01*
X97185939Y-110583000D01*
X97409405Y-110490437D01*
X97580438Y-110319404D01*
X97673000Y-110095938D01*
X97673000Y-109856000D01*
X97521000Y-109704000D01*
X96794000Y-109704000D01*
X96486000Y-109704000D01*
X95759000Y-109704000D01*
X95607000Y-109856000D01*
X92050000Y-109856000D01*
X92050000Y-109004062D01*
X95607000Y-109004062D01*
X95607000Y-109244000D01*
X95759000Y-109396000D01*
X96486000Y-109396000D01*
X96486000Y-108669000D01*
X96794000Y-108669000D01*
X96794000Y-109396000D01*
X97521000Y-109396000D01*
X97673000Y-109244000D01*
X97673000Y-109004062D01*
X97580438Y-108780596D01*
X97409405Y-108609563D01*
X97185939Y-108517000D01*
X96946000Y-108517000D01*
X96794000Y-108669000D01*
X96486000Y-108669000D01*
X96334000Y-108517000D01*
X96094061Y-108517000D01*
X95870595Y-108609563D01*
X95699562Y-108780596D01*
X95607000Y-109004062D01*
X92050000Y-109004062D01*
X92050000Y-106400706D01*
X92701049Y-106400040D01*
X92740242Y-106407836D01*
X92779841Y-106399959D01*
X92780045Y-106399959D01*
X92818106Y-106392348D01*
X92896314Y-106376791D01*
X92896491Y-106376673D01*
X92896699Y-106376631D01*
X92962256Y-106332731D01*
X93028626Y-106288384D01*
X93028745Y-106288206D01*
X93028921Y-106288088D01*
X93072676Y-106222458D01*
X93117033Y-106156072D01*
X93117075Y-106155862D01*
X93117192Y-106155686D01*
X93132469Y-106078473D01*
X93140242Y-106039394D01*
X93140242Y-106039184D01*
X93148077Y-105999583D01*
X93140242Y-105960403D01*
X93140242Y-105519910D01*
X93581089Y-105737915D01*
X93806000Y-105627856D01*
X93806000Y-104484000D01*
X94114000Y-104484000D01*
X94114000Y-105627856D01*
X94338911Y-105737915D01*
X94848854Y-105485741D01*
X95223477Y-105057616D01*
X95230000Y-105041867D01*
X95236523Y-105057616D01*
X95611146Y-105485741D01*
X96121089Y-105737915D01*
X96346000Y-105627856D01*
X96346000Y-104484000D01*
X96654000Y-104484000D01*
X96654000Y-105627856D01*
X96878911Y-105737915D01*
X97388854Y-105485741D01*
X97763477Y-105057616D01*
X97907903Y-104708910D01*
X97796889Y-104484000D01*
X96654000Y-104484000D01*
X96346000Y-104484000D01*
X94114000Y-104484000D01*
X93806000Y-104484000D01*
X93786000Y-104484000D01*
X93786000Y-104176000D01*
X93806000Y-104176000D01*
X93806000Y-104156000D01*
X94114000Y-104156000D01*
X94114000Y-104176000D01*
X96346000Y-104176000D01*
X96346000Y-104156000D01*
X96654000Y-104156000D01*
X96654000Y-104176000D01*
X97796889Y-104176000D01*
X97907903Y-103951090D01*
X97763477Y-103602384D01*
X97388854Y-103174259D01*
X96878911Y-102922085D01*
X96654002Y-103032143D01*
X96654002Y-102931896D01*
X96948707Y-102873276D01*
X97329103Y-102619103D01*
X97583276Y-102238707D01*
X97672529Y-101790000D01*
X97583276Y-101341293D01*
X97329103Y-100960897D01*
X96948707Y-100706724D01*
X96654002Y-100648104D01*
X96654002Y-100547857D01*
X96878911Y-100657915D01*
X97388854Y-100405741D01*
X97763477Y-99977616D01*
X97907903Y-99628910D01*
X97796889Y-99404000D01*
X96654000Y-99404000D01*
X96654000Y-99424000D01*
X96346000Y-99424000D01*
X96346000Y-99404000D01*
X94114000Y-99404000D01*
X94114000Y-99424000D01*
X93806000Y-99424000D01*
X93806000Y-99404000D01*
X93786000Y-99404000D01*
X93786000Y-99096000D01*
X93806000Y-99096000D01*
X93806000Y-97944000D01*
X94114000Y-97944000D01*
X94114000Y-99096000D01*
X96346000Y-99096000D01*
X96346000Y-97952144D01*
X96654000Y-97952144D01*
X96654000Y-99096000D01*
X97796889Y-99096000D01*
X97907903Y-98871090D01*
X97763477Y-98522384D01*
X97388854Y-98094259D01*
X96878911Y-97842085D01*
X96654000Y-97952144D01*
X96346000Y-97952144D01*
X96121089Y-97842085D01*
X95611146Y-98094259D01*
X95418000Y-98314989D01*
X95418000Y-98279062D01*
X95325438Y-98055596D01*
X95154405Y-97884563D01*
X94930939Y-97792000D01*
X94266000Y-97792000D01*
X94114000Y-97944000D01*
X93806000Y-97944000D01*
X93654000Y-97792000D01*
X93140242Y-97792000D01*
X93140242Y-97539597D01*
X93148077Y-97500417D01*
X93147995Y-97500000D01*
X98412406Y-97500000D01*
X98420243Y-97539399D01*
X98420242Y-105960606D01*
X98412406Y-106000000D01*
X98443451Y-106156072D01*
X98525015Y-106278142D01*
X98531858Y-106288384D01*
X98664170Y-106376791D01*
X98820242Y-106407836D01*
X98859636Y-106400000D01*
X109280848Y-106400000D01*
X109320242Y-106407836D01*
X109476314Y-106376791D01*
X109608626Y-106288384D01*
X109697033Y-106156072D01*
X109720242Y-106039394D01*
X109720242Y-106039393D01*
X109728078Y-106000000D01*
X109720242Y-105960606D01*
X109720242Y-105730625D01*
X109742407Y-105842054D01*
X109808712Y-105941288D01*
X109907946Y-106007593D01*
X110025000Y-106030877D01*
X110625000Y-106030877D01*
X110742054Y-106007593D01*
X110800255Y-105968705D01*
X110779081Y-105989879D01*
X110743592Y-106013592D01*
X110674952Y-106116320D01*
X110649659Y-106154174D01*
X110616674Y-106320000D01*
X110625000Y-106361858D01*
X110625001Y-107078138D01*
X110616674Y-107120000D01*
X110649659Y-107285826D01*
X110719882Y-107390922D01*
X110743593Y-107426408D01*
X110779078Y-107450119D01*
X111219881Y-107890922D01*
X111243592Y-107926408D01*
X111383486Y-108019882D01*
X111384173Y-108020341D01*
X111550000Y-108053326D01*
X111591857Y-108045000D01*
X114025009Y-108045000D01*
X114027407Y-108057054D01*
X114093712Y-108156288D01*
X114192946Y-108222593D01*
X114310000Y-108245877D01*
X115510000Y-108245877D01*
X115627054Y-108222593D01*
X115726288Y-108156288D01*
X115792593Y-108057054D01*
X115815877Y-107940000D01*
X115815877Y-106740000D01*
X115792593Y-106622946D01*
X115726288Y-106523712D01*
X115627054Y-106457407D01*
X115510000Y-106434123D01*
X114310000Y-106434123D01*
X114192946Y-106457407D01*
X114093712Y-106523712D01*
X114027407Y-106622946D01*
X114004123Y-106740000D01*
X114004123Y-107195000D01*
X112464557Y-107195000D01*
X112479873Y-107188656D01*
X112648656Y-107019873D01*
X112740000Y-106799347D01*
X112740000Y-106755369D01*
X112780000Y-106763326D01*
X112821857Y-106755000D01*
X112821858Y-106755000D01*
X112945827Y-106730341D01*
X113086408Y-106636408D01*
X113110121Y-106600919D01*
X113135920Y-106575120D01*
X113171408Y-106551408D01*
X113265341Y-106410827D01*
X113290000Y-106286858D01*
X113290000Y-106286857D01*
X113298326Y-106245001D01*
X113290000Y-106203143D01*
X113290000Y-106002284D01*
X113291379Y-106001362D01*
X113319563Y-106069405D01*
X113490596Y-106240438D01*
X113714062Y-106333000D01*
X113833000Y-106333000D01*
X113985000Y-106181000D01*
X113985000Y-105104000D01*
X114285000Y-105104000D01*
X114285000Y-106181000D01*
X114437000Y-106333000D01*
X114555938Y-106333000D01*
X114779404Y-106240438D01*
X114950437Y-106069405D01*
X115043000Y-105845939D01*
X115043000Y-105306000D01*
X115862000Y-105306000D01*
X115862000Y-105495938D01*
X115954562Y-105719404D01*
X116125595Y-105890437D01*
X116349061Y-105983000D01*
X116564000Y-105983000D01*
X116716000Y-105831000D01*
X116716000Y-105154000D01*
X116014000Y-105154000D01*
X115862000Y-105306000D01*
X115043000Y-105306000D01*
X115043000Y-105256000D01*
X114891000Y-105104000D01*
X114285000Y-105104000D01*
X113985000Y-105104000D01*
X113961000Y-105104000D01*
X113961000Y-104796000D01*
X113985000Y-104796000D01*
X113985000Y-103719000D01*
X114285000Y-103719000D01*
X114285000Y-104796000D01*
X114891000Y-104796000D01*
X115043000Y-104644000D01*
X115043000Y-104304718D01*
X115244062Y-104388000D01*
X115434000Y-104388000D01*
X115586000Y-104236000D01*
X115586000Y-103534000D01*
X114909000Y-103534000D01*
X114781421Y-103661579D01*
X114779404Y-103659562D01*
X114555938Y-103567000D01*
X114437000Y-103567000D01*
X114285000Y-103719000D01*
X113985000Y-103719000D01*
X113833000Y-103567000D01*
X113714062Y-103567000D01*
X113490596Y-103659562D01*
X113319563Y-103830595D01*
X113291379Y-103898638D01*
X113282054Y-103892407D01*
X113165000Y-103869123D01*
X112565000Y-103869123D01*
X112447946Y-103892407D01*
X112348712Y-103958712D01*
X112282407Y-104057946D01*
X112259123Y-104175000D01*
X112259123Y-105725000D01*
X112282407Y-105842054D01*
X112333467Y-105918472D01*
X112234078Y-105984882D01*
X112219081Y-105999879D01*
X112183592Y-106023592D01*
X112159881Y-106059078D01*
X112138959Y-106080000D01*
X112020653Y-106080000D01*
X111800127Y-106171344D01*
X111631344Y-106340127D01*
X111540000Y-106560653D01*
X111540000Y-106799347D01*
X111631344Y-107019873D01*
X111800127Y-107188656D01*
X111815443Y-107195000D01*
X111726041Y-107195000D01*
X111475000Y-106943960D01*
X111475000Y-106496040D01*
X111865922Y-106105119D01*
X111901408Y-106081408D01*
X111941329Y-106021661D01*
X112012054Y-106007593D01*
X112111288Y-105941288D01*
X112177593Y-105842054D01*
X112200877Y-105725000D01*
X112200877Y-104175000D01*
X112177593Y-104057946D01*
X112111288Y-103958712D01*
X112090632Y-103944910D01*
X112129873Y-103928656D01*
X112298656Y-103759873D01*
X112390000Y-103539347D01*
X112390000Y-103300653D01*
X112298656Y-103080127D01*
X112129873Y-102911344D01*
X111909347Y-102820000D01*
X111670653Y-102820000D01*
X111450127Y-102911344D01*
X111281344Y-103080127D01*
X111190000Y-103300653D01*
X111190000Y-103539347D01*
X111281344Y-103759873D01*
X111390594Y-103869123D01*
X111295000Y-103869123D01*
X111177946Y-103892407D01*
X111078712Y-103958712D01*
X111012407Y-104057946D01*
X110989123Y-104175000D01*
X110989123Y-105725000D01*
X110998221Y-105770738D01*
X110868705Y-105900254D01*
X110907593Y-105842054D01*
X110930877Y-105725000D01*
X110930877Y-104175000D01*
X110907593Y-104057946D01*
X110841288Y-103958712D01*
X110742054Y-103892407D01*
X110625000Y-103869123D01*
X110025000Y-103869123D01*
X109907946Y-103892407D01*
X109808712Y-103958712D01*
X109742407Y-104057946D01*
X109720242Y-104169375D01*
X109720242Y-100330625D01*
X109742407Y-100442054D01*
X109808712Y-100541288D01*
X109907946Y-100607593D01*
X110025000Y-100630877D01*
X110625000Y-100630877D01*
X110742054Y-100607593D01*
X110841288Y-100541288D01*
X110907593Y-100442054D01*
X110930877Y-100325000D01*
X110930877Y-98775000D01*
X110907593Y-98657946D01*
X110841288Y-98558712D01*
X110750000Y-98497716D01*
X110750000Y-97456857D01*
X110758326Y-97415000D01*
X110725341Y-97249173D01*
X110689144Y-97195000D01*
X110631408Y-97108592D01*
X110595922Y-97084881D01*
X109930121Y-96419081D01*
X109906408Y-96383592D01*
X109765827Y-96289659D01*
X109641858Y-96265000D01*
X109641857Y-96265000D01*
X109600000Y-96256674D01*
X109558143Y-96265000D01*
X108662405Y-96265000D01*
X108561858Y-96245000D01*
X108561857Y-96245000D01*
X108520000Y-96236674D01*
X108478143Y-96245000D01*
X108062194Y-96245000D01*
X108107593Y-96177054D01*
X108125904Y-96085000D01*
X109683960Y-96085000D01*
X111170001Y-97571041D01*
X111170000Y-98497716D01*
X111078712Y-98558712D01*
X111012407Y-98657946D01*
X110989123Y-98775000D01*
X110989123Y-100325000D01*
X111012407Y-100442054D01*
X111078712Y-100541288D01*
X111177946Y-100607593D01*
X111295000Y-100630877D01*
X111895000Y-100630877D01*
X112012054Y-100607593D01*
X112111288Y-100541288D01*
X112177593Y-100442054D01*
X112200877Y-100325000D01*
X112200877Y-99975000D01*
X112259123Y-99975000D01*
X112259123Y-100325000D01*
X112282407Y-100442054D01*
X112348712Y-100541288D01*
X112447946Y-100607593D01*
X112565000Y-100630877D01*
X113165000Y-100630877D01*
X113282054Y-100607593D01*
X113381288Y-100541288D01*
X113447593Y-100442054D01*
X113470877Y-100325000D01*
X113470877Y-99975000D01*
X113529123Y-99975000D01*
X113529123Y-100325000D01*
X113552407Y-100442054D01*
X113618712Y-100541288D01*
X113710000Y-100602284D01*
X113710000Y-101293142D01*
X113701674Y-101335000D01*
X113734659Y-101500827D01*
X113828592Y-101641408D01*
X113969173Y-101735341D01*
X114055895Y-101752591D01*
X114135000Y-101768326D01*
X114176857Y-101760000D01*
X114393960Y-101760000D01*
X114784881Y-102150922D01*
X114808592Y-102186408D01*
X114949173Y-102280341D01*
X115063723Y-102303126D01*
X115082407Y-102397054D01*
X115104337Y-102429875D01*
X115020596Y-102464562D01*
X114849563Y-102635595D01*
X114757000Y-102859061D01*
X114757000Y-103074000D01*
X114909000Y-103226000D01*
X115586000Y-103226000D01*
X115586000Y-103206000D01*
X115894000Y-103206000D01*
X115894000Y-103226000D01*
X115914000Y-103226000D01*
X115914000Y-103534000D01*
X115894000Y-103534000D01*
X115894000Y-104236000D01*
X115949886Y-104291886D01*
X115862000Y-104504062D01*
X115862000Y-104694000D01*
X116014000Y-104846000D01*
X116716000Y-104846000D01*
X116716000Y-104169000D01*
X116642436Y-104095436D01*
X116691086Y-103977987D01*
X116712946Y-103992593D01*
X116830000Y-104015877D01*
X117730000Y-104015877D01*
X117847054Y-103992593D01*
X117946288Y-103926288D01*
X118012593Y-103827054D01*
X118030904Y-103735000D01*
X118614123Y-103735000D01*
X118614123Y-103760000D01*
X118637407Y-103877054D01*
X118703712Y-103976288D01*
X118802946Y-104042593D01*
X118920000Y-104065877D01*
X119720000Y-104065877D01*
X119837054Y-104042593D01*
X119936288Y-103976288D01*
X120002593Y-103877054D01*
X120025877Y-103760000D01*
X120025877Y-102860000D01*
X120514123Y-102860000D01*
X120514123Y-103760000D01*
X120537407Y-103877054D01*
X120603712Y-103976288D01*
X120702946Y-104042593D01*
X120795001Y-104060904D01*
X120795000Y-104269096D01*
X120702946Y-104287407D01*
X120603712Y-104353712D01*
X120537407Y-104452946D01*
X120514123Y-104570000D01*
X120514123Y-105470000D01*
X120537407Y-105587054D01*
X120603712Y-105686288D01*
X120702946Y-105752593D01*
X120820000Y-105775877D01*
X121620000Y-105775877D01*
X121737054Y-105752593D01*
X121836288Y-105686288D01*
X121902593Y-105587054D01*
X121925877Y-105470000D01*
X121925877Y-104570000D01*
X121902593Y-104452946D01*
X121836288Y-104353712D01*
X121737054Y-104287407D01*
X121645000Y-104269096D01*
X121645000Y-104060904D01*
X121737054Y-104042593D01*
X121836288Y-103976288D01*
X121902593Y-103877054D01*
X121925877Y-103760000D01*
X121925877Y-102860000D01*
X121902593Y-102742946D01*
X121836288Y-102643712D01*
X121737054Y-102577407D01*
X121620000Y-102554123D01*
X120820000Y-102554123D01*
X120702946Y-102577407D01*
X120603712Y-102643712D01*
X120537407Y-102742946D01*
X120514123Y-102860000D01*
X120025877Y-102860000D01*
X120002593Y-102742946D01*
X119936288Y-102643712D01*
X119837054Y-102577407D01*
X119720000Y-102554123D01*
X118920000Y-102554123D01*
X118802946Y-102577407D01*
X118703712Y-102643712D01*
X118637407Y-102742946D01*
X118614123Y-102860000D01*
X118614123Y-102885000D01*
X118030904Y-102885000D01*
X118012593Y-102792946D01*
X117990663Y-102760125D01*
X118074404Y-102725438D01*
X118245437Y-102554405D01*
X118338000Y-102330939D01*
X118338000Y-102116000D01*
X118186000Y-101964000D01*
X117434000Y-101964000D01*
X117434000Y-101984000D01*
X117126000Y-101984000D01*
X117126000Y-101964000D01*
X117106000Y-101964000D01*
X117106000Y-101656000D01*
X117126000Y-101656000D01*
X117126000Y-100954000D01*
X117434000Y-100954000D01*
X117434000Y-101656000D01*
X118186000Y-101656000D01*
X118338000Y-101504000D01*
X118338000Y-101289061D01*
X118245437Y-101065595D01*
X118074404Y-100894562D01*
X117850938Y-100802000D01*
X117586000Y-100802000D01*
X117434000Y-100954000D01*
X117126000Y-100954000D01*
X116974000Y-100802000D01*
X116709062Y-100802000D01*
X116485596Y-100894562D01*
X116314563Y-101065595D01*
X116253914Y-101212013D01*
X116232054Y-101197407D01*
X116115000Y-101174123D01*
X115365000Y-101174123D01*
X115247946Y-101197407D01*
X115148712Y-101263712D01*
X115129102Y-101293061D01*
X114900121Y-101064081D01*
X114876408Y-101028592D01*
X114735827Y-100934659D01*
X114611858Y-100910000D01*
X114611857Y-100910000D01*
X114570000Y-100901674D01*
X114560000Y-100903663D01*
X114560000Y-100602284D01*
X114651288Y-100541288D01*
X114717593Y-100442054D01*
X114740877Y-100325000D01*
X114740877Y-100031917D01*
X114840000Y-100131040D01*
X114840000Y-100249347D01*
X114931344Y-100469873D01*
X115100127Y-100638656D01*
X115320653Y-100730000D01*
X115559347Y-100730000D01*
X115779873Y-100638656D01*
X115948656Y-100469873D01*
X116040000Y-100249347D01*
X116040000Y-100050653D01*
X118570000Y-100050653D01*
X118570000Y-100289347D01*
X118661344Y-100509873D01*
X118745000Y-100593529D01*
X118745000Y-100758142D01*
X118736674Y-100800000D01*
X118759829Y-100916407D01*
X118769659Y-100965826D01*
X118863592Y-101106408D01*
X118899080Y-101130121D01*
X119349881Y-101580922D01*
X119373592Y-101616408D01*
X119452209Y-101668938D01*
X119514173Y-101710341D01*
X119564123Y-101720277D01*
X119564123Y-101760000D01*
X119587407Y-101877054D01*
X119653712Y-101976288D01*
X119752946Y-102042593D01*
X119870000Y-102065877D01*
X120670000Y-102065877D01*
X120787054Y-102042593D01*
X120886288Y-101976288D01*
X120952593Y-101877054D01*
X120975877Y-101760000D01*
X120975877Y-100860000D01*
X120952593Y-100742946D01*
X120886288Y-100643712D01*
X120787054Y-100577407D01*
X120670000Y-100554123D01*
X119870000Y-100554123D01*
X119752946Y-100577407D01*
X119653712Y-100643712D01*
X119638107Y-100667067D01*
X119595000Y-100623960D01*
X119595000Y-100593529D01*
X119678656Y-100509873D01*
X119770000Y-100289347D01*
X119770000Y-100050653D01*
X119678656Y-99830127D01*
X119509873Y-99661344D01*
X119289347Y-99570000D01*
X119050653Y-99570000D01*
X118830127Y-99661344D01*
X118661344Y-99830127D01*
X118570000Y-100050653D01*
X116040000Y-100050653D01*
X116040000Y-100010653D01*
X115948656Y-99790127D01*
X115779873Y-99621344D01*
X115559347Y-99530000D01*
X115441040Y-99530000D01*
X115202185Y-99291145D01*
X115180548Y-99257789D01*
X115142983Y-99231943D01*
X115140922Y-99229882D01*
X115108540Y-99208245D01*
X115041257Y-99161952D01*
X115038322Y-99161326D01*
X115035826Y-99159659D01*
X114955734Y-99143728D01*
X114917635Y-99135609D01*
X114914720Y-99135569D01*
X114870000Y-99126674D01*
X114831006Y-99134430D01*
X114740877Y-99133204D01*
X114740877Y-98775000D01*
X114717593Y-98657946D01*
X114651288Y-98558712D01*
X114560000Y-98497716D01*
X114560000Y-95366857D01*
X114568326Y-95325000D01*
X114558182Y-95274000D01*
X114535341Y-95159173D01*
X114441408Y-95018592D01*
X114405922Y-94994881D01*
X113731040Y-94320000D01*
X114156040Y-93895000D01*
X117105001Y-93895000D01*
X117105000Y-94576484D01*
X116900127Y-94661344D01*
X116731344Y-94830127D01*
X116640000Y-95050653D01*
X116640000Y-95289347D01*
X116731344Y-95509873D01*
X116900127Y-95678656D01*
X117120653Y-95770000D01*
X117359347Y-95770000D01*
X117579873Y-95678656D01*
X117748656Y-95509873D01*
X117840000Y-95289347D01*
X117840000Y-95181032D01*
X117930341Y-95045827D01*
X117955000Y-94921858D01*
X117955000Y-94921857D01*
X117963326Y-94880000D01*
X117955000Y-94838143D01*
X117955000Y-94159062D01*
X123122000Y-94159062D01*
X123122000Y-94374000D01*
X123274000Y-94526000D01*
X124026000Y-94526000D01*
X124026000Y-93824000D01*
X124334000Y-93824000D01*
X124334000Y-94526000D01*
X125086000Y-94526000D01*
X125238000Y-94374000D01*
X125238000Y-94159062D01*
X125145438Y-93935596D01*
X124974405Y-93764563D01*
X124750939Y-93672000D01*
X124486000Y-93672000D01*
X124334000Y-93824000D01*
X124026000Y-93824000D01*
X123874000Y-93672000D01*
X123609061Y-93672000D01*
X123385595Y-93764563D01*
X123214562Y-93935596D01*
X123122000Y-94159062D01*
X117955000Y-94159062D01*
X117955000Y-93711857D01*
X117963326Y-93670000D01*
X117930341Y-93504173D01*
X117912710Y-93477786D01*
X117836408Y-93363592D01*
X117800919Y-93339879D01*
X117660121Y-93199081D01*
X117636408Y-93163592D01*
X117495827Y-93069659D01*
X117371858Y-93045000D01*
X117371857Y-93045000D01*
X117330000Y-93036674D01*
X117288143Y-93045000D01*
X114021857Y-93045000D01*
X113980000Y-93036674D01*
X113938142Y-93045000D01*
X113814173Y-93069659D01*
X113673592Y-93163592D01*
X113649879Y-93199081D01*
X112953960Y-93895000D01*
X111803529Y-93895000D01*
X111729873Y-93821344D01*
X111509347Y-93730000D01*
X111270653Y-93730000D01*
X111050127Y-93821344D01*
X110881344Y-93990127D01*
X110790000Y-94210653D01*
X110790000Y-94449347D01*
X110881344Y-94669873D01*
X111050127Y-94838656D01*
X111270653Y-94930000D01*
X111509347Y-94930000D01*
X111729873Y-94838656D01*
X111823529Y-94745000D01*
X112953960Y-94745000D01*
X113710001Y-95501042D01*
X113710000Y-98497716D01*
X113618712Y-98558712D01*
X113552407Y-98657946D01*
X113529123Y-98775000D01*
X113529123Y-99125000D01*
X113470877Y-99125000D01*
X113470877Y-98775000D01*
X113447593Y-98657946D01*
X113381288Y-98558712D01*
X113282054Y-98492407D01*
X113165000Y-98469123D01*
X112565000Y-98469123D01*
X112447946Y-98492407D01*
X112348712Y-98558712D01*
X112282407Y-98657946D01*
X112259123Y-98775000D01*
X112259123Y-99125000D01*
X112200877Y-99125000D01*
X112200877Y-98775000D01*
X112177593Y-98657946D01*
X112111288Y-98558712D01*
X112020000Y-98497716D01*
X112020000Y-97436857D01*
X112028326Y-97395000D01*
X111995341Y-97229173D01*
X111984752Y-97213326D01*
X111901408Y-97088592D01*
X111865919Y-97064879D01*
X110190121Y-95389081D01*
X110166408Y-95353592D01*
X110025827Y-95259659D01*
X109901858Y-95235000D01*
X109901857Y-95235000D01*
X109860000Y-95226674D01*
X109818143Y-95235000D01*
X108125904Y-95235000D01*
X108107593Y-95142946D01*
X108085663Y-95110125D01*
X108169404Y-95075438D01*
X108340437Y-94904405D01*
X108433000Y-94680939D01*
X108433000Y-94466000D01*
X108281000Y-94314000D01*
X107604000Y-94314000D01*
X107604000Y-94334000D01*
X107296000Y-94334000D01*
X107296000Y-94314000D01*
X106619000Y-94314000D01*
X106467000Y-94466000D01*
X106467000Y-94680939D01*
X106559563Y-94904405D01*
X106730596Y-95075438D01*
X106814337Y-95110125D01*
X106792407Y-95142946D01*
X106769123Y-95260000D01*
X106769123Y-96060000D01*
X106792407Y-96177054D01*
X106837806Y-96245000D01*
X106020877Y-96245000D01*
X106020877Y-96220000D01*
X105997593Y-96102946D01*
X105975663Y-96070125D01*
X106059404Y-96035438D01*
X106230437Y-95864405D01*
X106323000Y-95640939D01*
X106323000Y-95426000D01*
X106171000Y-95274000D01*
X105494000Y-95274000D01*
X105494000Y-95294000D01*
X105186000Y-95294000D01*
X105186000Y-95274000D01*
X104509000Y-95274000D01*
X104357000Y-95426000D01*
X104357000Y-95640939D01*
X104449563Y-95864405D01*
X104620596Y-96035438D01*
X104704337Y-96070125D01*
X104682407Y-96102946D01*
X104659123Y-96220000D01*
X104659123Y-97020000D01*
X104675036Y-97100000D01*
X98859636Y-97100000D01*
X98820242Y-97092164D01*
X98780848Y-97100000D01*
X98664170Y-97123209D01*
X98531858Y-97211616D01*
X98443451Y-97343928D01*
X98412406Y-97500000D01*
X93147995Y-97500000D01*
X93140242Y-97460816D01*
X93140242Y-97460606D01*
X93132469Y-97421527D01*
X93117192Y-97344314D01*
X93117075Y-97344138D01*
X93117033Y-97343928D01*
X93072676Y-97277542D01*
X93028921Y-97211912D01*
X93028745Y-97211794D01*
X93028626Y-97211616D01*
X92962481Y-97167420D01*
X92896699Y-97123369D01*
X92896490Y-97123327D01*
X92896313Y-97123209D01*
X92818200Y-97107671D01*
X92780045Y-97100041D01*
X92779841Y-97100041D01*
X92740242Y-97092164D01*
X92701049Y-97099960D01*
X92050000Y-97099294D01*
X92050000Y-94599061D01*
X104357000Y-94599061D01*
X104357000Y-94814000D01*
X104509000Y-94966000D01*
X105186000Y-94966000D01*
X105186000Y-94264000D01*
X105494000Y-94264000D01*
X105494000Y-94966000D01*
X106171000Y-94966000D01*
X106323000Y-94814000D01*
X106323000Y-94599061D01*
X106230437Y-94375595D01*
X106059404Y-94204562D01*
X105835938Y-94112000D01*
X105646000Y-94112000D01*
X105494000Y-94264000D01*
X105186000Y-94264000D01*
X105034000Y-94112000D01*
X104844062Y-94112000D01*
X104620596Y-94204562D01*
X104449563Y-94375595D01*
X104357000Y-94599061D01*
X92050000Y-94599061D01*
X92050000Y-93639061D01*
X106467000Y-93639061D01*
X106467000Y-93854000D01*
X106619000Y-94006000D01*
X107296000Y-94006000D01*
X107296000Y-93304000D01*
X107604000Y-93304000D01*
X107604000Y-94006000D01*
X108281000Y-94006000D01*
X108433000Y-93854000D01*
X108433000Y-93639061D01*
X108340437Y-93415595D01*
X108169404Y-93244562D01*
X107945938Y-93152000D01*
X107756000Y-93152000D01*
X107604000Y-93304000D01*
X107296000Y-93304000D01*
X107144000Y-93152000D01*
X106954062Y-93152000D01*
X106730596Y-93244562D01*
X106559563Y-93415595D01*
X106467000Y-93639061D01*
X92050000Y-93639061D01*
X92050000Y-92320000D01*
X95052889Y-92320000D01*
X127650000Y-92906562D01*
X127650000Y-92906562D01*
G37*
X127650000Y-92906562D02*
X127650000Y-95180000D01*
X126925931Y-95180000D01*
X126912593Y-95112946D01*
X126846288Y-95013712D01*
X126747054Y-94947407D01*
X126630000Y-94924123D01*
X125730000Y-94924123D01*
X125612946Y-94947407D01*
X125513712Y-95013712D01*
X125447407Y-95112946D01*
X125429096Y-95205000D01*
X125236317Y-95205000D01*
X125238000Y-95200938D01*
X125238000Y-94986000D01*
X125086000Y-94834000D01*
X124334000Y-94834000D01*
X124334000Y-94854000D01*
X124026000Y-94854000D01*
X124026000Y-94834000D01*
X123274000Y-94834000D01*
X123122000Y-94986000D01*
X123122000Y-95200938D01*
X123133956Y-95229804D01*
X122993592Y-95323592D01*
X122969881Y-95359078D01*
X122629078Y-95699881D01*
X122593593Y-95723592D01*
X122569882Y-95759078D01*
X122499659Y-95864174D01*
X122466674Y-96030000D01*
X122475001Y-96071862D01*
X122475000Y-96603959D01*
X122113960Y-96965000D01*
X119231857Y-96965000D01*
X119189999Y-96956674D01*
X119047002Y-96985118D01*
X119024173Y-96989659D01*
X118883592Y-97083592D01*
X118859879Y-97119081D01*
X118689079Y-97289881D01*
X118653593Y-97313592D01*
X118629883Y-97349077D01*
X118629882Y-97349078D01*
X118559659Y-97454174D01*
X118526674Y-97620000D01*
X118535001Y-97661862D01*
X118535001Y-97749096D01*
X118442946Y-97767407D01*
X118343712Y-97833712D01*
X118277407Y-97932946D01*
X118254123Y-98050000D01*
X118254123Y-98950000D01*
X118277407Y-99067054D01*
X118343712Y-99166288D01*
X118442946Y-99232593D01*
X118560000Y-99255877D01*
X119360000Y-99255877D01*
X119477054Y-99232593D01*
X119576288Y-99166288D01*
X119642593Y-99067054D01*
X119665877Y-98950000D01*
X119665877Y-98050000D01*
X119642593Y-97932946D01*
X119576288Y-97833712D01*
X119548283Y-97815000D01*
X119871717Y-97815000D01*
X119843712Y-97833712D01*
X119777407Y-97932946D01*
X119754123Y-98050000D01*
X119754123Y-98950000D01*
X119777407Y-99067054D01*
X119843712Y-99166288D01*
X119942946Y-99232593D01*
X120060000Y-99255877D01*
X120860000Y-99255877D01*
X120977054Y-99232593D01*
X121076288Y-99166288D01*
X121142593Y-99067054D01*
X121165877Y-98950000D01*
X121165877Y-98925000D01*
X121349096Y-98925000D01*
X121367407Y-99017054D01*
X121433712Y-99116288D01*
X121532946Y-99182593D01*
X121650000Y-99205877D01*
X122450000Y-99205877D01*
X122567054Y-99182593D01*
X122666288Y-99116288D01*
X122732593Y-99017054D01*
X122755877Y-98900000D01*
X122755877Y-98100000D01*
X122732593Y-97982946D01*
X122666288Y-97883712D01*
X122567054Y-97817407D01*
X122450000Y-97794123D01*
X122436814Y-97794123D01*
X122455827Y-97790341D01*
X122596408Y-97696408D01*
X122620121Y-97660919D01*
X123170922Y-97110118D01*
X123206408Y-97086408D01*
X123300341Y-96945827D01*
X123301317Y-96940922D01*
X123333326Y-96780001D01*
X123325000Y-96738143D01*
X123325000Y-96206040D01*
X123442270Y-96088771D01*
X123424123Y-96180000D01*
X123424123Y-96980000D01*
X123447407Y-97097054D01*
X123513712Y-97196288D01*
X123612946Y-97262593D01*
X123730000Y-97285877D01*
X123755800Y-97285877D01*
X123779659Y-97405826D01*
X123816262Y-97460606D01*
X123873593Y-97546408D01*
X123909078Y-97570119D01*
X124153712Y-97814753D01*
X124050000Y-97794123D01*
X123250000Y-97794123D01*
X123132946Y-97817407D01*
X123033712Y-97883712D01*
X122967407Y-97982946D01*
X122944123Y-98100000D01*
X122944123Y-98900000D01*
X122967407Y-99017054D01*
X123033712Y-99116288D01*
X123132946Y-99182593D01*
X123250000Y-99205877D01*
X123565001Y-99205877D01*
X123565000Y-99554123D01*
X123540000Y-99554123D01*
X123422946Y-99577407D01*
X123323712Y-99643712D01*
X123257407Y-99742946D01*
X123239096Y-99835000D01*
X123161857Y-99835000D01*
X123120000Y-99826674D01*
X123078142Y-99835000D01*
X122954173Y-99859659D01*
X122813592Y-99953592D01*
X122789881Y-99989078D01*
X122499080Y-100279879D01*
X122463592Y-100303592D01*
X122399403Y-100399659D01*
X122369659Y-100444174D01*
X122336674Y-100610000D01*
X122345000Y-100651858D01*
X122345000Y-100796471D01*
X122261344Y-100880127D01*
X122170000Y-101100653D01*
X122170000Y-101339347D01*
X122261344Y-101559873D01*
X122430127Y-101728656D01*
X122650653Y-101820000D01*
X122889347Y-101820000D01*
X123109873Y-101728656D01*
X123234123Y-101604406D01*
X123234123Y-102160000D01*
X123257407Y-102277054D01*
X123323712Y-102376288D01*
X123422946Y-102442593D01*
X123540000Y-102465877D01*
X123565000Y-102465877D01*
X123565001Y-102704123D01*
X123560000Y-102704123D01*
X123442946Y-102727407D01*
X123343712Y-102793712D01*
X123277407Y-102892946D01*
X123254123Y-103010000D01*
X123254123Y-103810000D01*
X123277407Y-103927054D01*
X123343712Y-104026288D01*
X123442946Y-104092593D01*
X123560000Y-104115877D01*
X124460000Y-104115877D01*
X124577054Y-104092593D01*
X124676288Y-104026288D01*
X124742593Y-103927054D01*
X124765877Y-103810000D01*
X124765877Y-103010000D01*
X124742593Y-102892946D01*
X124676288Y-102793712D01*
X124577054Y-102727407D01*
X124460000Y-102704123D01*
X124415000Y-102704123D01*
X124415000Y-102465877D01*
X124440000Y-102465877D01*
X124557054Y-102442593D01*
X124656288Y-102376288D01*
X124722593Y-102277054D01*
X124745877Y-102160000D01*
X124745877Y-101360000D01*
X124722593Y-101242946D01*
X124656288Y-101143712D01*
X124557054Y-101077407D01*
X124440000Y-101054123D01*
X123540000Y-101054123D01*
X123422946Y-101077407D01*
X123370000Y-101112784D01*
X123370000Y-101100653D01*
X123278656Y-100880127D01*
X123195000Y-100796471D01*
X123195000Y-100786040D01*
X123248544Y-100732497D01*
X123257407Y-100777054D01*
X123323712Y-100876288D01*
X123422946Y-100942593D01*
X123540000Y-100965877D01*
X124440000Y-100965877D01*
X124557054Y-100942593D01*
X124656288Y-100876288D01*
X124722593Y-100777054D01*
X124745877Y-100660000D01*
X124745877Y-99860000D01*
X124722593Y-99742946D01*
X124656288Y-99643712D01*
X124557054Y-99577407D01*
X124440000Y-99554123D01*
X124415000Y-99554123D01*
X124415000Y-98881857D01*
X124423326Y-98840000D01*
X124390341Y-98674173D01*
X124368059Y-98640826D01*
X124355877Y-98622594D01*
X124355877Y-98100000D01*
X124332593Y-97982946D01*
X124328065Y-97976169D01*
X124348941Y-97990118D01*
X124394173Y-98020341D01*
X124559999Y-98053326D01*
X124601857Y-98045000D01*
X125585000Y-98045000D01*
X125585001Y-103654123D01*
X125560000Y-103654123D01*
X125442946Y-103677407D01*
X125343712Y-103743712D01*
X125277407Y-103842946D01*
X125254123Y-103960000D01*
X125254123Y-104760000D01*
X125277407Y-104877054D01*
X125343712Y-104976288D01*
X125442946Y-105042593D01*
X125560000Y-105065877D01*
X125585001Y-105065877D01*
X125585000Y-105928142D01*
X125576674Y-105970000D01*
X125598835Y-106081408D01*
X125609659Y-106135826D01*
X125703592Y-106276408D01*
X125739081Y-106300121D01*
X127199881Y-107760922D01*
X127223592Y-107796408D01*
X127364173Y-107890341D01*
X127470346Y-107911460D01*
X127530000Y-107923326D01*
X127571857Y-107915000D01*
X127593960Y-107915000D01*
X127650000Y-107971040D01*
X127650000Y-110593276D01*
X126699464Y-110610378D01*
X126835438Y-110474404D01*
X126928000Y-110250938D01*
X126928000Y-109986000D01*
X126776000Y-109834000D01*
X126074000Y-109834000D01*
X126074000Y-109854000D01*
X125766000Y-109854000D01*
X125766000Y-109834000D01*
X125746000Y-109834000D01*
X125746000Y-109526000D01*
X125766000Y-109526000D01*
X125766000Y-109506000D01*
X126074000Y-109506000D01*
X126074000Y-109526000D01*
X126776000Y-109526000D01*
X126928000Y-109374000D01*
X126928000Y-109109062D01*
X126835438Y-108885596D01*
X126664405Y-108714563D01*
X126440939Y-108622000D01*
X126277807Y-108622000D01*
X126316288Y-108596288D01*
X126382593Y-108497054D01*
X126405877Y-108380000D01*
X126405877Y-107480000D01*
X126382593Y-107362946D01*
X126316288Y-107263712D01*
X126217054Y-107197407D01*
X126110700Y-107176251D01*
X126100341Y-107124173D01*
X126079377Y-107092798D01*
X126006408Y-106983592D01*
X125970920Y-106959880D01*
X125830121Y-106819081D01*
X125806408Y-106783592D01*
X125665827Y-106689659D01*
X125541858Y-106665000D01*
X125541857Y-106665000D01*
X125500000Y-106656674D01*
X125458143Y-106665000D01*
X124666040Y-106665000D01*
X124435000Y-106433960D01*
X124435000Y-106015877D01*
X124460000Y-106015877D01*
X124577054Y-105992593D01*
X124676288Y-105926288D01*
X124742593Y-105827054D01*
X124765877Y-105710000D01*
X124765877Y-104910000D01*
X124742593Y-104792946D01*
X124676288Y-104693712D01*
X124577054Y-104627407D01*
X124460000Y-104604123D01*
X123560000Y-104604123D01*
X123442946Y-104627407D01*
X123343712Y-104693712D01*
X123277407Y-104792946D01*
X123254123Y-104910000D01*
X123254123Y-105710000D01*
X123277407Y-105827054D01*
X123343712Y-105926288D01*
X123442946Y-105992593D01*
X123560000Y-106015877D01*
X123585001Y-106015877D01*
X123585001Y-106568138D01*
X123576674Y-106610000D01*
X123609659Y-106775826D01*
X123676601Y-106876011D01*
X123703593Y-106916408D01*
X123739079Y-106940119D01*
X123973083Y-107174123D01*
X123800000Y-107174123D01*
X123682946Y-107197407D01*
X123583712Y-107263712D01*
X123517407Y-107362946D01*
X123494123Y-107480000D01*
X123494123Y-107840270D01*
X123436288Y-107753712D01*
X123337054Y-107687407D01*
X123220000Y-107664123D01*
X122320000Y-107664123D01*
X122202946Y-107687407D01*
X122103712Y-107753712D01*
X122037407Y-107852946D01*
X122014123Y-107970000D01*
X122014123Y-108770000D01*
X122037407Y-108887054D01*
X122103712Y-108986288D01*
X122202946Y-109052593D01*
X122320000Y-109075877D01*
X123220000Y-109075877D01*
X123337054Y-109052593D01*
X123436288Y-108986288D01*
X123502593Y-108887054D01*
X123524882Y-108775000D01*
X124241858Y-108775000D01*
X124365827Y-108750341D01*
X124462304Y-108685877D01*
X124600000Y-108685877D01*
X124717054Y-108662593D01*
X124816288Y-108596288D01*
X124882593Y-108497054D01*
X124905877Y-108380000D01*
X124905877Y-107515000D01*
X124994123Y-107515000D01*
X124994123Y-108380000D01*
X125017407Y-108497054D01*
X125083712Y-108596288D01*
X125182946Y-108662593D01*
X125262741Y-108678466D01*
X125175595Y-108714563D01*
X125004562Y-108885596D01*
X124969875Y-108969337D01*
X124937054Y-108947407D01*
X124820000Y-108924123D01*
X124020000Y-108924123D01*
X123902946Y-108947407D01*
X123803712Y-109013712D01*
X123737407Y-109112946D01*
X123714123Y-109230000D01*
X123714123Y-109257789D01*
X123604173Y-109279659D01*
X123463592Y-109373592D01*
X123439879Y-109409081D01*
X123373960Y-109475000D01*
X122226041Y-109475000D01*
X121800121Y-109049081D01*
X121776408Y-109013592D01*
X121635827Y-108919659D01*
X121521277Y-108896874D01*
X121502593Y-108802946D01*
X121436288Y-108703712D01*
X121337054Y-108637407D01*
X121220000Y-108614123D01*
X120320000Y-108614123D01*
X120202946Y-108637407D01*
X120103712Y-108703712D01*
X120037407Y-108802946D01*
X120019096Y-108895000D01*
X119215877Y-108895000D01*
X119215877Y-107940000D01*
X119192593Y-107822946D01*
X119127817Y-107726000D01*
X119712000Y-107726000D01*
X119712000Y-107940938D01*
X119804562Y-108164404D01*
X119975595Y-108335437D01*
X120199061Y-108428000D01*
X120464000Y-108428000D01*
X120616000Y-108276000D01*
X120616000Y-107574000D01*
X120924000Y-107574000D01*
X120924000Y-108276000D01*
X121076000Y-108428000D01*
X121340939Y-108428000D01*
X121564405Y-108335437D01*
X121735438Y-108164404D01*
X121828000Y-107940938D01*
X121828000Y-107726000D01*
X121676000Y-107574000D01*
X120924000Y-107574000D01*
X120616000Y-107574000D01*
X119864000Y-107574000D01*
X119712000Y-107726000D01*
X119127817Y-107726000D01*
X119126288Y-107723712D01*
X119027054Y-107657407D01*
X118910000Y-107634123D01*
X118795000Y-107634123D01*
X118795000Y-106899062D01*
X119712000Y-106899062D01*
X119712000Y-107114000D01*
X119864000Y-107266000D01*
X120616000Y-107266000D01*
X120616000Y-106564000D01*
X120924000Y-106564000D01*
X120924000Y-107266000D01*
X121676000Y-107266000D01*
X121828000Y-107114000D01*
X121828000Y-106899062D01*
X121735438Y-106675596D01*
X121564405Y-106504563D01*
X121340939Y-106412000D01*
X121076000Y-106412000D01*
X120924000Y-106564000D01*
X120616000Y-106564000D01*
X120464000Y-106412000D01*
X120199061Y-106412000D01*
X119975595Y-106504563D01*
X119804562Y-106675596D01*
X119712000Y-106899062D01*
X118795000Y-106899062D01*
X118795000Y-105675904D01*
X118887054Y-105657593D01*
X118986288Y-105591288D01*
X119026329Y-105531362D01*
X119037407Y-105587054D01*
X119103712Y-105686288D01*
X119202946Y-105752593D01*
X119320000Y-105775877D01*
X120120000Y-105775877D01*
X120237054Y-105752593D01*
X120336288Y-105686288D01*
X120402593Y-105587054D01*
X120425877Y-105470000D01*
X120425877Y-104570000D01*
X120402593Y-104452946D01*
X120336288Y-104353712D01*
X120237054Y-104287407D01*
X120120000Y-104264123D01*
X119320000Y-104264123D01*
X119202946Y-104287407D01*
X119103712Y-104353712D01*
X119037407Y-104452946D01*
X119032460Y-104477815D01*
X118986288Y-104408712D01*
X118887054Y-104342407D01*
X118770000Y-104319123D01*
X117970000Y-104319123D01*
X117852946Y-104342407D01*
X117820125Y-104364337D01*
X117785438Y-104280596D01*
X117614405Y-104109563D01*
X117390939Y-104017000D01*
X117176000Y-104017000D01*
X117024000Y-104169000D01*
X117024000Y-104846000D01*
X117044000Y-104846000D01*
X117044000Y-105154000D01*
X117024000Y-105154000D01*
X117024000Y-105831000D01*
X117176000Y-105983000D01*
X117390939Y-105983000D01*
X117614405Y-105890437D01*
X117785438Y-105719404D01*
X117820125Y-105635663D01*
X117852946Y-105657593D01*
X117945000Y-105675904D01*
X117945001Y-107634123D01*
X117410000Y-107634123D01*
X117292946Y-107657407D01*
X117193712Y-107723712D01*
X117127407Y-107822946D01*
X117104123Y-107940000D01*
X117104123Y-109540000D01*
X117127407Y-109657054D01*
X117193712Y-109756288D01*
X117292946Y-109822593D01*
X117410000Y-109845877D01*
X118910000Y-109845877D01*
X119027054Y-109822593D01*
X119126288Y-109756288D01*
X119133830Y-109745000D01*
X120019096Y-109745000D01*
X120037407Y-109837054D01*
X120103712Y-109936288D01*
X120202946Y-110002593D01*
X120320000Y-110025877D01*
X121220000Y-110025877D01*
X121337054Y-110002593D01*
X121436288Y-109936288D01*
X121455898Y-109906939D01*
X121719881Y-110170922D01*
X121743592Y-110206408D01*
X121810236Y-110250938D01*
X121884173Y-110300341D01*
X122050000Y-110333326D01*
X122091857Y-110325000D01*
X123508143Y-110325000D01*
X123550000Y-110333326D01*
X123591857Y-110325000D01*
X123591858Y-110325000D01*
X123715827Y-110300341D01*
X123755361Y-110273925D01*
X123803712Y-110346288D01*
X123902946Y-110412593D01*
X124020000Y-110435877D01*
X124820000Y-110435877D01*
X124937054Y-110412593D01*
X124969875Y-110390663D01*
X125004562Y-110474404D01*
X125168088Y-110637930D01*
X115802663Y-110806432D01*
X115815877Y-110740000D01*
X115815877Y-109540000D01*
X115792593Y-109422946D01*
X115726288Y-109323712D01*
X115627054Y-109257407D01*
X115510000Y-109234123D01*
X114310000Y-109234123D01*
X114192946Y-109257407D01*
X114093712Y-109323712D01*
X114027407Y-109422946D01*
X114004123Y-109540000D01*
X114004123Y-110740000D01*
X114023704Y-110838439D01*
X92050000Y-111233789D01*
X92050000Y-109856000D01*
X95607000Y-109856000D01*
X95607000Y-110095938D01*
X95699562Y-110319404D01*
X95870595Y-110490437D01*
X96094061Y-110583000D01*
X96334000Y-110583000D01*
X96486000Y-110431000D01*
X96486000Y-109704000D01*
X96794000Y-109704000D01*
X96794000Y-110431000D01*
X96946000Y-110583000D01*
X97185939Y-110583000D01*
X97409405Y-110490437D01*
X97580438Y-110319404D01*
X97673000Y-110095938D01*
X97673000Y-109856000D01*
X97521000Y-109704000D01*
X96794000Y-109704000D01*
X96486000Y-109704000D01*
X95759000Y-109704000D01*
X95607000Y-109856000D01*
X92050000Y-109856000D01*
X92050000Y-109004062D01*
X95607000Y-109004062D01*
X95607000Y-109244000D01*
X95759000Y-109396000D01*
X96486000Y-109396000D01*
X96486000Y-108669000D01*
X96794000Y-108669000D01*
X96794000Y-109396000D01*
X97521000Y-109396000D01*
X97673000Y-109244000D01*
X97673000Y-109004062D01*
X97580438Y-108780596D01*
X97409405Y-108609563D01*
X97185939Y-108517000D01*
X96946000Y-108517000D01*
X96794000Y-108669000D01*
X96486000Y-108669000D01*
X96334000Y-108517000D01*
X96094061Y-108517000D01*
X95870595Y-108609563D01*
X95699562Y-108780596D01*
X95607000Y-109004062D01*
X92050000Y-109004062D01*
X92050000Y-106400706D01*
X92701049Y-106400040D01*
X92740242Y-106407836D01*
X92779841Y-106399959D01*
X92780045Y-106399959D01*
X92818106Y-106392348D01*
X92896314Y-106376791D01*
X92896491Y-106376673D01*
X92896699Y-106376631D01*
X92962256Y-106332731D01*
X93028626Y-106288384D01*
X93028745Y-106288206D01*
X93028921Y-106288088D01*
X93072676Y-106222458D01*
X93117033Y-106156072D01*
X93117075Y-106155862D01*
X93117192Y-106155686D01*
X93132469Y-106078473D01*
X93140242Y-106039394D01*
X93140242Y-106039184D01*
X93148077Y-105999583D01*
X93140242Y-105960403D01*
X93140242Y-105519910D01*
X93581089Y-105737915D01*
X93806000Y-105627856D01*
X93806000Y-104484000D01*
X94114000Y-104484000D01*
X94114000Y-105627856D01*
X94338911Y-105737915D01*
X94848854Y-105485741D01*
X95223477Y-105057616D01*
X95230000Y-105041867D01*
X95236523Y-105057616D01*
X95611146Y-105485741D01*
X96121089Y-105737915D01*
X96346000Y-105627856D01*
X96346000Y-104484000D01*
X96654000Y-104484000D01*
X96654000Y-105627856D01*
X96878911Y-105737915D01*
X97388854Y-105485741D01*
X97763477Y-105057616D01*
X97907903Y-104708910D01*
X97796889Y-104484000D01*
X96654000Y-104484000D01*
X96346000Y-104484000D01*
X94114000Y-104484000D01*
X93806000Y-104484000D01*
X93786000Y-104484000D01*
X93786000Y-104176000D01*
X93806000Y-104176000D01*
X93806000Y-104156000D01*
X94114000Y-104156000D01*
X94114000Y-104176000D01*
X96346000Y-104176000D01*
X96346000Y-104156000D01*
X96654000Y-104156000D01*
X96654000Y-104176000D01*
X97796889Y-104176000D01*
X97907903Y-103951090D01*
X97763477Y-103602384D01*
X97388854Y-103174259D01*
X96878911Y-102922085D01*
X96654002Y-103032143D01*
X96654002Y-102931896D01*
X96948707Y-102873276D01*
X97329103Y-102619103D01*
X97583276Y-102238707D01*
X97672529Y-101790000D01*
X97583276Y-101341293D01*
X97329103Y-100960897D01*
X96948707Y-100706724D01*
X96654002Y-100648104D01*
X96654002Y-100547857D01*
X96878911Y-100657915D01*
X97388854Y-100405741D01*
X97763477Y-99977616D01*
X97907903Y-99628910D01*
X97796889Y-99404000D01*
X96654000Y-99404000D01*
X96654000Y-99424000D01*
X96346000Y-99424000D01*
X96346000Y-99404000D01*
X94114000Y-99404000D01*
X94114000Y-99424000D01*
X93806000Y-99424000D01*
X93806000Y-99404000D01*
X93786000Y-99404000D01*
X93786000Y-99096000D01*
X93806000Y-99096000D01*
X93806000Y-97944000D01*
X94114000Y-97944000D01*
X94114000Y-99096000D01*
X96346000Y-99096000D01*
X96346000Y-97952144D01*
X96654000Y-97952144D01*
X96654000Y-99096000D01*
X97796889Y-99096000D01*
X97907903Y-98871090D01*
X97763477Y-98522384D01*
X97388854Y-98094259D01*
X96878911Y-97842085D01*
X96654000Y-97952144D01*
X96346000Y-97952144D01*
X96121089Y-97842085D01*
X95611146Y-98094259D01*
X95418000Y-98314989D01*
X95418000Y-98279062D01*
X95325438Y-98055596D01*
X95154405Y-97884563D01*
X94930939Y-97792000D01*
X94266000Y-97792000D01*
X94114000Y-97944000D01*
X93806000Y-97944000D01*
X93654000Y-97792000D01*
X93140242Y-97792000D01*
X93140242Y-97539597D01*
X93148077Y-97500417D01*
X93147995Y-97500000D01*
X98412406Y-97500000D01*
X98420243Y-97539399D01*
X98420242Y-105960606D01*
X98412406Y-106000000D01*
X98443451Y-106156072D01*
X98525015Y-106278142D01*
X98531858Y-106288384D01*
X98664170Y-106376791D01*
X98820242Y-106407836D01*
X98859636Y-106400000D01*
X109280848Y-106400000D01*
X109320242Y-106407836D01*
X109476314Y-106376791D01*
X109608626Y-106288384D01*
X109697033Y-106156072D01*
X109720242Y-106039394D01*
X109720242Y-106039393D01*
X109728078Y-106000000D01*
X109720242Y-105960606D01*
X109720242Y-105730625D01*
X109742407Y-105842054D01*
X109808712Y-105941288D01*
X109907946Y-106007593D01*
X110025000Y-106030877D01*
X110625000Y-106030877D01*
X110742054Y-106007593D01*
X110800255Y-105968705D01*
X110779081Y-105989879D01*
X110743592Y-106013592D01*
X110674952Y-106116320D01*
X110649659Y-106154174D01*
X110616674Y-106320000D01*
X110625000Y-106361858D01*
X110625001Y-107078138D01*
X110616674Y-107120000D01*
X110649659Y-107285826D01*
X110719882Y-107390922D01*
X110743593Y-107426408D01*
X110779078Y-107450119D01*
X111219881Y-107890922D01*
X111243592Y-107926408D01*
X111383486Y-108019882D01*
X111384173Y-108020341D01*
X111550000Y-108053326D01*
X111591857Y-108045000D01*
X114025009Y-108045000D01*
X114027407Y-108057054D01*
X114093712Y-108156288D01*
X114192946Y-108222593D01*
X114310000Y-108245877D01*
X115510000Y-108245877D01*
X115627054Y-108222593D01*
X115726288Y-108156288D01*
X115792593Y-108057054D01*
X115815877Y-107940000D01*
X115815877Y-106740000D01*
X115792593Y-106622946D01*
X115726288Y-106523712D01*
X115627054Y-106457407D01*
X115510000Y-106434123D01*
X114310000Y-106434123D01*
X114192946Y-106457407D01*
X114093712Y-106523712D01*
X114027407Y-106622946D01*
X114004123Y-106740000D01*
X114004123Y-107195000D01*
X112464557Y-107195000D01*
X112479873Y-107188656D01*
X112648656Y-107019873D01*
X112740000Y-106799347D01*
X112740000Y-106755369D01*
X112780000Y-106763326D01*
X112821857Y-106755000D01*
X112821858Y-106755000D01*
X112945827Y-106730341D01*
X113086408Y-106636408D01*
X113110121Y-106600919D01*
X113135920Y-106575120D01*
X113171408Y-106551408D01*
X113265341Y-106410827D01*
X113290000Y-106286858D01*
X113290000Y-106286857D01*
X113298326Y-106245001D01*
X113290000Y-106203143D01*
X113290000Y-106002284D01*
X113291379Y-106001362D01*
X113319563Y-106069405D01*
X113490596Y-106240438D01*
X113714062Y-106333000D01*
X113833000Y-106333000D01*
X113985000Y-106181000D01*
X113985000Y-105104000D01*
X114285000Y-105104000D01*
X114285000Y-106181000D01*
X114437000Y-106333000D01*
X114555938Y-106333000D01*
X114779404Y-106240438D01*
X114950437Y-106069405D01*
X115043000Y-105845939D01*
X115043000Y-105306000D01*
X115862000Y-105306000D01*
X115862000Y-105495938D01*
X115954562Y-105719404D01*
X116125595Y-105890437D01*
X116349061Y-105983000D01*
X116564000Y-105983000D01*
X116716000Y-105831000D01*
X116716000Y-105154000D01*
X116014000Y-105154000D01*
X115862000Y-105306000D01*
X115043000Y-105306000D01*
X115043000Y-105256000D01*
X114891000Y-105104000D01*
X114285000Y-105104000D01*
X113985000Y-105104000D01*
X113961000Y-105104000D01*
X113961000Y-104796000D01*
X113985000Y-104796000D01*
X113985000Y-103719000D01*
X114285000Y-103719000D01*
X114285000Y-104796000D01*
X114891000Y-104796000D01*
X115043000Y-104644000D01*
X115043000Y-104304718D01*
X115244062Y-104388000D01*
X115434000Y-104388000D01*
X115586000Y-104236000D01*
X115586000Y-103534000D01*
X114909000Y-103534000D01*
X114781421Y-103661579D01*
X114779404Y-103659562D01*
X114555938Y-103567000D01*
X114437000Y-103567000D01*
X114285000Y-103719000D01*
X113985000Y-103719000D01*
X113833000Y-103567000D01*
X113714062Y-103567000D01*
X113490596Y-103659562D01*
X113319563Y-103830595D01*
X113291379Y-103898638D01*
X113282054Y-103892407D01*
X113165000Y-103869123D01*
X112565000Y-103869123D01*
X112447946Y-103892407D01*
X112348712Y-103958712D01*
X112282407Y-104057946D01*
X112259123Y-104175000D01*
X112259123Y-105725000D01*
X112282407Y-105842054D01*
X112333467Y-105918472D01*
X112234078Y-105984882D01*
X112219081Y-105999879D01*
X112183592Y-106023592D01*
X112159881Y-106059078D01*
X112138959Y-106080000D01*
X112020653Y-106080000D01*
X111800127Y-106171344D01*
X111631344Y-106340127D01*
X111540000Y-106560653D01*
X111540000Y-106799347D01*
X111631344Y-107019873D01*
X111800127Y-107188656D01*
X111815443Y-107195000D01*
X111726041Y-107195000D01*
X111475000Y-106943960D01*
X111475000Y-106496040D01*
X111865922Y-106105119D01*
X111901408Y-106081408D01*
X111941329Y-106021661D01*
X112012054Y-106007593D01*
X112111288Y-105941288D01*
X112177593Y-105842054D01*
X112200877Y-105725000D01*
X112200877Y-104175000D01*
X112177593Y-104057946D01*
X112111288Y-103958712D01*
X112090632Y-103944910D01*
X112129873Y-103928656D01*
X112298656Y-103759873D01*
X112390000Y-103539347D01*
X112390000Y-103300653D01*
X112298656Y-103080127D01*
X112129873Y-102911344D01*
X111909347Y-102820000D01*
X111670653Y-102820000D01*
X111450127Y-102911344D01*
X111281344Y-103080127D01*
X111190000Y-103300653D01*
X111190000Y-103539347D01*
X111281344Y-103759873D01*
X111390594Y-103869123D01*
X111295000Y-103869123D01*
X111177946Y-103892407D01*
X111078712Y-103958712D01*
X111012407Y-104057946D01*
X110989123Y-104175000D01*
X110989123Y-105725000D01*
X110998221Y-105770738D01*
X110868705Y-105900254D01*
X110907593Y-105842054D01*
X110930877Y-105725000D01*
X110930877Y-104175000D01*
X110907593Y-104057946D01*
X110841288Y-103958712D01*
X110742054Y-103892407D01*
X110625000Y-103869123D01*
X110025000Y-103869123D01*
X109907946Y-103892407D01*
X109808712Y-103958712D01*
X109742407Y-104057946D01*
X109720242Y-104169375D01*
X109720242Y-100330625D01*
X109742407Y-100442054D01*
X109808712Y-100541288D01*
X109907946Y-100607593D01*
X110025000Y-100630877D01*
X110625000Y-100630877D01*
X110742054Y-100607593D01*
X110841288Y-100541288D01*
X110907593Y-100442054D01*
X110930877Y-100325000D01*
X110930877Y-98775000D01*
X110907593Y-98657946D01*
X110841288Y-98558712D01*
X110750000Y-98497716D01*
X110750000Y-97456857D01*
X110758326Y-97415000D01*
X110725341Y-97249173D01*
X110689144Y-97195000D01*
X110631408Y-97108592D01*
X110595922Y-97084881D01*
X109930121Y-96419081D01*
X109906408Y-96383592D01*
X109765827Y-96289659D01*
X109641858Y-96265000D01*
X109641857Y-96265000D01*
X109600000Y-96256674D01*
X109558143Y-96265000D01*
X108662405Y-96265000D01*
X108561858Y-96245000D01*
X108561857Y-96245000D01*
X108520000Y-96236674D01*
X108478143Y-96245000D01*
X108062194Y-96245000D01*
X108107593Y-96177054D01*
X108125904Y-96085000D01*
X109683960Y-96085000D01*
X111170001Y-97571041D01*
X111170000Y-98497716D01*
X111078712Y-98558712D01*
X111012407Y-98657946D01*
X110989123Y-98775000D01*
X110989123Y-100325000D01*
X111012407Y-100442054D01*
X111078712Y-100541288D01*
X111177946Y-100607593D01*
X111295000Y-100630877D01*
X111895000Y-100630877D01*
X112012054Y-100607593D01*
X112111288Y-100541288D01*
X112177593Y-100442054D01*
X112200877Y-100325000D01*
X112200877Y-99975000D01*
X112259123Y-99975000D01*
X112259123Y-100325000D01*
X112282407Y-100442054D01*
X112348712Y-100541288D01*
X112447946Y-100607593D01*
X112565000Y-100630877D01*
X113165000Y-100630877D01*
X113282054Y-100607593D01*
X113381288Y-100541288D01*
X113447593Y-100442054D01*
X113470877Y-100325000D01*
X113470877Y-99975000D01*
X113529123Y-99975000D01*
X113529123Y-100325000D01*
X113552407Y-100442054D01*
X113618712Y-100541288D01*
X113710000Y-100602284D01*
X113710000Y-101293142D01*
X113701674Y-101335000D01*
X113734659Y-101500827D01*
X113828592Y-101641408D01*
X113969173Y-101735341D01*
X114055895Y-101752591D01*
X114135000Y-101768326D01*
X114176857Y-101760000D01*
X114393960Y-101760000D01*
X114784881Y-102150922D01*
X114808592Y-102186408D01*
X114949173Y-102280341D01*
X115063723Y-102303126D01*
X115082407Y-102397054D01*
X115104337Y-102429875D01*
X115020596Y-102464562D01*
X114849563Y-102635595D01*
X114757000Y-102859061D01*
X114757000Y-103074000D01*
X114909000Y-103226000D01*
X115586000Y-103226000D01*
X115586000Y-103206000D01*
X115894000Y-103206000D01*
X115894000Y-103226000D01*
X115914000Y-103226000D01*
X115914000Y-103534000D01*
X115894000Y-103534000D01*
X115894000Y-104236000D01*
X115949886Y-104291886D01*
X115862000Y-104504062D01*
X115862000Y-104694000D01*
X116014000Y-104846000D01*
X116716000Y-104846000D01*
X116716000Y-104169000D01*
X116642436Y-104095436D01*
X116691086Y-103977987D01*
X116712946Y-103992593D01*
X116830000Y-104015877D01*
X117730000Y-104015877D01*
X117847054Y-103992593D01*
X117946288Y-103926288D01*
X118012593Y-103827054D01*
X118030904Y-103735000D01*
X118614123Y-103735000D01*
X118614123Y-103760000D01*
X118637407Y-103877054D01*
X118703712Y-103976288D01*
X118802946Y-104042593D01*
X118920000Y-104065877D01*
X119720000Y-104065877D01*
X119837054Y-104042593D01*
X119936288Y-103976288D01*
X120002593Y-103877054D01*
X120025877Y-103760000D01*
X120025877Y-102860000D01*
X120514123Y-102860000D01*
X120514123Y-103760000D01*
X120537407Y-103877054D01*
X120603712Y-103976288D01*
X120702946Y-104042593D01*
X120795001Y-104060904D01*
X120795000Y-104269096D01*
X120702946Y-104287407D01*
X120603712Y-104353712D01*
X120537407Y-104452946D01*
X120514123Y-104570000D01*
X120514123Y-105470000D01*
X120537407Y-105587054D01*
X120603712Y-105686288D01*
X120702946Y-105752593D01*
X120820000Y-105775877D01*
X121620000Y-105775877D01*
X121737054Y-105752593D01*
X121836288Y-105686288D01*
X121902593Y-105587054D01*
X121925877Y-105470000D01*
X121925877Y-104570000D01*
X121902593Y-104452946D01*
X121836288Y-104353712D01*
X121737054Y-104287407D01*
X121645000Y-104269096D01*
X121645000Y-104060904D01*
X121737054Y-104042593D01*
X121836288Y-103976288D01*
X121902593Y-103877054D01*
X121925877Y-103760000D01*
X121925877Y-102860000D01*
X121902593Y-102742946D01*
X121836288Y-102643712D01*
X121737054Y-102577407D01*
X121620000Y-102554123D01*
X120820000Y-102554123D01*
X120702946Y-102577407D01*
X120603712Y-102643712D01*
X120537407Y-102742946D01*
X120514123Y-102860000D01*
X120025877Y-102860000D01*
X120002593Y-102742946D01*
X119936288Y-102643712D01*
X119837054Y-102577407D01*
X119720000Y-102554123D01*
X118920000Y-102554123D01*
X118802946Y-102577407D01*
X118703712Y-102643712D01*
X118637407Y-102742946D01*
X118614123Y-102860000D01*
X118614123Y-102885000D01*
X118030904Y-102885000D01*
X118012593Y-102792946D01*
X117990663Y-102760125D01*
X118074404Y-102725438D01*
X118245437Y-102554405D01*
X118338000Y-102330939D01*
X118338000Y-102116000D01*
X118186000Y-101964000D01*
X117434000Y-101964000D01*
X117434000Y-101984000D01*
X117126000Y-101984000D01*
X117126000Y-101964000D01*
X117106000Y-101964000D01*
X117106000Y-101656000D01*
X117126000Y-101656000D01*
X117126000Y-100954000D01*
X117434000Y-100954000D01*
X117434000Y-101656000D01*
X118186000Y-101656000D01*
X118338000Y-101504000D01*
X118338000Y-101289061D01*
X118245437Y-101065595D01*
X118074404Y-100894562D01*
X117850938Y-100802000D01*
X117586000Y-100802000D01*
X117434000Y-100954000D01*
X117126000Y-100954000D01*
X116974000Y-100802000D01*
X116709062Y-100802000D01*
X116485596Y-100894562D01*
X116314563Y-101065595D01*
X116253914Y-101212013D01*
X116232054Y-101197407D01*
X116115000Y-101174123D01*
X115365000Y-101174123D01*
X115247946Y-101197407D01*
X115148712Y-101263712D01*
X115129102Y-101293061D01*
X114900121Y-101064081D01*
X114876408Y-101028592D01*
X114735827Y-100934659D01*
X114611858Y-100910000D01*
X114611857Y-100910000D01*
X114570000Y-100901674D01*
X114560000Y-100903663D01*
X114560000Y-100602284D01*
X114651288Y-100541288D01*
X114717593Y-100442054D01*
X114740877Y-100325000D01*
X114740877Y-100031917D01*
X114840000Y-100131040D01*
X114840000Y-100249347D01*
X114931344Y-100469873D01*
X115100127Y-100638656D01*
X115320653Y-100730000D01*
X115559347Y-100730000D01*
X115779873Y-100638656D01*
X115948656Y-100469873D01*
X116040000Y-100249347D01*
X116040000Y-100050653D01*
X118570000Y-100050653D01*
X118570000Y-100289347D01*
X118661344Y-100509873D01*
X118745000Y-100593529D01*
X118745000Y-100758142D01*
X118736674Y-100800000D01*
X118759829Y-100916407D01*
X118769659Y-100965826D01*
X118863592Y-101106408D01*
X118899080Y-101130121D01*
X119349881Y-101580922D01*
X119373592Y-101616408D01*
X119452209Y-101668938D01*
X119514173Y-101710341D01*
X119564123Y-101720277D01*
X119564123Y-101760000D01*
X119587407Y-101877054D01*
X119653712Y-101976288D01*
X119752946Y-102042593D01*
X119870000Y-102065877D01*
X120670000Y-102065877D01*
X120787054Y-102042593D01*
X120886288Y-101976288D01*
X120952593Y-101877054D01*
X120975877Y-101760000D01*
X120975877Y-100860000D01*
X120952593Y-100742946D01*
X120886288Y-100643712D01*
X120787054Y-100577407D01*
X120670000Y-100554123D01*
X119870000Y-100554123D01*
X119752946Y-100577407D01*
X119653712Y-100643712D01*
X119638107Y-100667067D01*
X119595000Y-100623960D01*
X119595000Y-100593529D01*
X119678656Y-100509873D01*
X119770000Y-100289347D01*
X119770000Y-100050653D01*
X119678656Y-99830127D01*
X119509873Y-99661344D01*
X119289347Y-99570000D01*
X119050653Y-99570000D01*
X118830127Y-99661344D01*
X118661344Y-99830127D01*
X118570000Y-100050653D01*
X116040000Y-100050653D01*
X116040000Y-100010653D01*
X115948656Y-99790127D01*
X115779873Y-99621344D01*
X115559347Y-99530000D01*
X115441040Y-99530000D01*
X115202185Y-99291145D01*
X115180548Y-99257789D01*
X115142983Y-99231943D01*
X115140922Y-99229882D01*
X115108540Y-99208245D01*
X115041257Y-99161952D01*
X115038322Y-99161326D01*
X115035826Y-99159659D01*
X114955734Y-99143728D01*
X114917635Y-99135609D01*
X114914720Y-99135569D01*
X114870000Y-99126674D01*
X114831006Y-99134430D01*
X114740877Y-99133204D01*
X114740877Y-98775000D01*
X114717593Y-98657946D01*
X114651288Y-98558712D01*
X114560000Y-98497716D01*
X114560000Y-95366857D01*
X114568326Y-95325000D01*
X114558182Y-95274000D01*
X114535341Y-95159173D01*
X114441408Y-95018592D01*
X114405922Y-94994881D01*
X113731040Y-94320000D01*
X114156040Y-93895000D01*
X117105001Y-93895000D01*
X117105000Y-94576484D01*
X116900127Y-94661344D01*
X116731344Y-94830127D01*
X116640000Y-95050653D01*
X116640000Y-95289347D01*
X116731344Y-95509873D01*
X116900127Y-95678656D01*
X117120653Y-95770000D01*
X117359347Y-95770000D01*
X117579873Y-95678656D01*
X117748656Y-95509873D01*
X117840000Y-95289347D01*
X117840000Y-95181032D01*
X117930341Y-95045827D01*
X117955000Y-94921858D01*
X117955000Y-94921857D01*
X117963326Y-94880000D01*
X117955000Y-94838143D01*
X117955000Y-94159062D01*
X123122000Y-94159062D01*
X123122000Y-94374000D01*
X123274000Y-94526000D01*
X124026000Y-94526000D01*
X124026000Y-93824000D01*
X124334000Y-93824000D01*
X124334000Y-94526000D01*
X125086000Y-94526000D01*
X125238000Y-94374000D01*
X125238000Y-94159062D01*
X125145438Y-93935596D01*
X124974405Y-93764563D01*
X124750939Y-93672000D01*
X124486000Y-93672000D01*
X124334000Y-93824000D01*
X124026000Y-93824000D01*
X123874000Y-93672000D01*
X123609061Y-93672000D01*
X123385595Y-93764563D01*
X123214562Y-93935596D01*
X123122000Y-94159062D01*
X117955000Y-94159062D01*
X117955000Y-93711857D01*
X117963326Y-93670000D01*
X117930341Y-93504173D01*
X117912710Y-93477786D01*
X117836408Y-93363592D01*
X117800919Y-93339879D01*
X117660121Y-93199081D01*
X117636408Y-93163592D01*
X117495827Y-93069659D01*
X117371858Y-93045000D01*
X117371857Y-93045000D01*
X117330000Y-93036674D01*
X117288143Y-93045000D01*
X114021857Y-93045000D01*
X113980000Y-93036674D01*
X113938142Y-93045000D01*
X113814173Y-93069659D01*
X113673592Y-93163592D01*
X113649879Y-93199081D01*
X112953960Y-93895000D01*
X111803529Y-93895000D01*
X111729873Y-93821344D01*
X111509347Y-93730000D01*
X111270653Y-93730000D01*
X111050127Y-93821344D01*
X110881344Y-93990127D01*
X110790000Y-94210653D01*
X110790000Y-94449347D01*
X110881344Y-94669873D01*
X111050127Y-94838656D01*
X111270653Y-94930000D01*
X111509347Y-94930000D01*
X111729873Y-94838656D01*
X111823529Y-94745000D01*
X112953960Y-94745000D01*
X113710001Y-95501042D01*
X113710000Y-98497716D01*
X113618712Y-98558712D01*
X113552407Y-98657946D01*
X113529123Y-98775000D01*
X113529123Y-99125000D01*
X113470877Y-99125000D01*
X113470877Y-98775000D01*
X113447593Y-98657946D01*
X113381288Y-98558712D01*
X113282054Y-98492407D01*
X113165000Y-98469123D01*
X112565000Y-98469123D01*
X112447946Y-98492407D01*
X112348712Y-98558712D01*
X112282407Y-98657946D01*
X112259123Y-98775000D01*
X112259123Y-99125000D01*
X112200877Y-99125000D01*
X112200877Y-98775000D01*
X112177593Y-98657946D01*
X112111288Y-98558712D01*
X112020000Y-98497716D01*
X112020000Y-97436857D01*
X112028326Y-97395000D01*
X111995341Y-97229173D01*
X111984752Y-97213326D01*
X111901408Y-97088592D01*
X111865919Y-97064879D01*
X110190121Y-95389081D01*
X110166408Y-95353592D01*
X110025827Y-95259659D01*
X109901858Y-95235000D01*
X109901857Y-95235000D01*
X109860000Y-95226674D01*
X109818143Y-95235000D01*
X108125904Y-95235000D01*
X108107593Y-95142946D01*
X108085663Y-95110125D01*
X108169404Y-95075438D01*
X108340437Y-94904405D01*
X108433000Y-94680939D01*
X108433000Y-94466000D01*
X108281000Y-94314000D01*
X107604000Y-94314000D01*
X107604000Y-94334000D01*
X107296000Y-94334000D01*
X107296000Y-94314000D01*
X106619000Y-94314000D01*
X106467000Y-94466000D01*
X106467000Y-94680939D01*
X106559563Y-94904405D01*
X106730596Y-95075438D01*
X106814337Y-95110125D01*
X106792407Y-95142946D01*
X106769123Y-95260000D01*
X106769123Y-96060000D01*
X106792407Y-96177054D01*
X106837806Y-96245000D01*
X106020877Y-96245000D01*
X106020877Y-96220000D01*
X105997593Y-96102946D01*
X105975663Y-96070125D01*
X106059404Y-96035438D01*
X106230437Y-95864405D01*
X106323000Y-95640939D01*
X106323000Y-95426000D01*
X106171000Y-95274000D01*
X105494000Y-95274000D01*
X105494000Y-95294000D01*
X105186000Y-95294000D01*
X105186000Y-95274000D01*
X104509000Y-95274000D01*
X104357000Y-95426000D01*
X104357000Y-95640939D01*
X104449563Y-95864405D01*
X104620596Y-96035438D01*
X104704337Y-96070125D01*
X104682407Y-96102946D01*
X104659123Y-96220000D01*
X104659123Y-97020000D01*
X104675036Y-97100000D01*
X98859636Y-97100000D01*
X98820242Y-97092164D01*
X98780848Y-97100000D01*
X98664170Y-97123209D01*
X98531858Y-97211616D01*
X98443451Y-97343928D01*
X98412406Y-97500000D01*
X93147995Y-97500000D01*
X93140242Y-97460816D01*
X93140242Y-97460606D01*
X93132469Y-97421527D01*
X93117192Y-97344314D01*
X93117075Y-97344138D01*
X93117033Y-97343928D01*
X93072676Y-97277542D01*
X93028921Y-97211912D01*
X93028745Y-97211794D01*
X93028626Y-97211616D01*
X92962481Y-97167420D01*
X92896699Y-97123369D01*
X92896490Y-97123327D01*
X92896313Y-97123209D01*
X92818200Y-97107671D01*
X92780045Y-97100041D01*
X92779841Y-97100041D01*
X92740242Y-97092164D01*
X92701049Y-97099960D01*
X92050000Y-97099294D01*
X92050000Y-94599061D01*
X104357000Y-94599061D01*
X104357000Y-94814000D01*
X104509000Y-94966000D01*
X105186000Y-94966000D01*
X105186000Y-94264000D01*
X105494000Y-94264000D01*
X105494000Y-94966000D01*
X106171000Y-94966000D01*
X106323000Y-94814000D01*
X106323000Y-94599061D01*
X106230437Y-94375595D01*
X106059404Y-94204562D01*
X105835938Y-94112000D01*
X105646000Y-94112000D01*
X105494000Y-94264000D01*
X105186000Y-94264000D01*
X105034000Y-94112000D01*
X104844062Y-94112000D01*
X104620596Y-94204562D01*
X104449563Y-94375595D01*
X104357000Y-94599061D01*
X92050000Y-94599061D01*
X92050000Y-93639061D01*
X106467000Y-93639061D01*
X106467000Y-93854000D01*
X106619000Y-94006000D01*
X107296000Y-94006000D01*
X107296000Y-93304000D01*
X107604000Y-93304000D01*
X107604000Y-94006000D01*
X108281000Y-94006000D01*
X108433000Y-93854000D01*
X108433000Y-93639061D01*
X108340437Y-93415595D01*
X108169404Y-93244562D01*
X107945938Y-93152000D01*
X107756000Y-93152000D01*
X107604000Y-93304000D01*
X107296000Y-93304000D01*
X107144000Y-93152000D01*
X106954062Y-93152000D01*
X106730596Y-93244562D01*
X106559563Y-93415595D01*
X106467000Y-93639061D01*
X92050000Y-93639061D01*
X92050000Y-92320000D01*
X95052889Y-92320000D01*
X127650000Y-92906562D01*
G04 #@! TD*
M02*
