G04 #@! TF.GenerationSoftware,KiCad,Pcbnew,5.0.0*
G04 #@! TF.CreationDate,2018-08-13T09:31:51+09:00*
G04 #@! TF.ProjectId,moids_infinity,6D6F6964735F696E66696E6974792E6B,rev?*
G04 #@! TF.SameCoordinates,Original*
G04 #@! TF.FileFunction,Profile,NP*
%FSLAX46Y46*%
G04 Gerber Fmt 4.6, Leading zero omitted, Abs format (unit mm)*
G04 Created by KiCad (PCBNEW 5.0.0) date Mon Aug 13 09:31:51 2018*
%MOMM*%
%LPD*%
G01*
G04 APERTURE LIST*
%ADD10C,0.200000*%
G04 APERTURE END LIST*
D10*
X84610908Y-109564809D02*
X84253636Y-105988842D01*
X84612673Y-109582054D02*
X84610908Y-109564809D01*
X98820242Y-106000000D02*
X98820242Y-97500000D01*
X109320242Y-106000000D02*
X98820242Y-106000000D01*
X86516795Y-96333709D02*
X86551031Y-96368755D01*
X86516794Y-96333709D02*
G75*
G02X85581040Y-93947497I2354245J2299803D01*
G01*
X85581040Y-109552503D02*
X85579674Y-109569863D01*
X85581041Y-109552502D02*
G75*
G02X86516795Y-107166291I3289998J86408D01*
G01*
X200220000Y-101283315D02*
X203248360Y-101257742D01*
X86551031Y-107131245D02*
X86516795Y-107166291D01*
X86551031Y-107131245D02*
G75*
G02X88994661Y-106003833I2697774J-2635388D01*
G01*
X84253636Y-97511158D02*
X84610908Y-93935191D01*
X203248361Y-101257742D02*
G75*
G02X203257688Y-102242258I14587J-492164D01*
G01*
X196755328Y-93750000D02*
G75*
G02X204085182Y-104955190I0J-8000000D01*
G01*
X154755328Y-96750000D02*
X154755328Y-106750000D01*
X128055328Y-96750000D02*
X154755328Y-96750000D01*
X154755328Y-106750000D02*
X128055328Y-106750000D01*
X83419188Y-111789405D02*
G75*
G02X82748480Y-106000000I61336140J10039405D01*
G01*
X84253636Y-105988842D02*
X82748480Y-106000000D01*
X92740242Y-106000000D02*
X88994661Y-106003833D01*
X92740242Y-97500000D02*
X92740242Y-106000000D01*
X82748480Y-97500000D02*
G75*
G02X83419188Y-91710595I62006848J-4250000D01*
G01*
X88994661Y-97496167D02*
X92740242Y-97500000D01*
X88994661Y-97496167D02*
G75*
G02X86551031Y-96368755I254144J3762800D01*
G01*
X196755328Y-93750000D02*
X83419188Y-91710595D01*
X128055328Y-106750000D02*
X128055328Y-96750000D01*
X203637946Y-105827937D02*
X199890004Y-102079996D01*
X203637946Y-105827937D02*
G75*
G02X196755328Y-109750000I-6882618J4077937D01*
G01*
X83419144Y-111789139D02*
X196755328Y-109750000D01*
X85579674Y-93930137D02*
X85581040Y-93947497D01*
X85101362Y-93482326D02*
G75*
G02X85579674Y-93930137I-6164J-485935D01*
G01*
X85101362Y-110017674D02*
G75*
G02X84612673Y-109582054I-6152J485020D01*
G01*
X85579673Y-109569863D02*
G75*
G02X85101362Y-110017673I-484475J38124D01*
G01*
X203257688Y-102242258D02*
X201372250Y-102242258D01*
X82748480Y-97500000D02*
X84253636Y-97511158D01*
X84612674Y-93917946D02*
G75*
G02X85101362Y-93482327I482536J-49400D01*
G01*
X84610908Y-93935191D02*
X84612673Y-93917946D01*
X201372250Y-102242258D02*
X204085182Y-104955190D01*
X109320242Y-97500000D02*
X109320242Y-106000000D01*
X98820242Y-97500000D02*
X109320242Y-97500000D01*
X199890004Y-102079996D02*
G75*
G02X200220000Y-101283315I329996J329996D01*
G01*
M02*
