M48
;DRILL file {KiCad 5.0.0} date Mon Aug 13 09:31:48 2018
;FORMAT={-:-/ absolute / metric / decimal}
FMAT,2
METRIC,TZ
T1C0.400
T2C0.500
T3C1.000
T4C1.200
%
G90
G05
M71
T1
X105.55Y-93.52
X111.39Y-94.33
X111.79Y-103.42
X112.14Y-106.68
X112.66Y-101.61
X115.44Y-100.13
X116.73Y-106.96
X117.24Y-95.17
X117.29Y-100.49
X119.17Y-100.17
X122.77Y-101.22
X127.39Y-110.19
X132.99Y-93.79
X176.5Y-101.59
X181.7Y-107.22
T2
X96.64Y-109.55
T3
X93.96Y-99.25
X93.96Y-101.79
X93.96Y-104.33
X96.5Y-99.25
X96.5Y-101.79
X96.5Y-104.33
T4
X176.5Y-98.15
X179.04Y-98.15
X181.58Y-98.15
X184.2Y-100.14
X185.95Y-108.14
X187.Y-100.14
X188.25Y-108.14
X190.55Y-96.34
X190.55Y-108.14
X191.8Y-100.14
X194.1Y-100.14
T0
M30
